<svg xmlns="http://www.w3.org/2000/svg" xml:space="preserve" width="2048" height="2048" style="shape-rendering:geometricPrecision;text-rendering:geometricPrecision;image-rendering:optimizeQuality;fill-rule:evenodd;clip-rule:evenodd"><defs><clipPath id="id0"><path d="M1024 0c565.538 0 1024 458.462 1024 1024s-458.462 1024-1024 1024S0 1589.538 0 1024 458.462 0 1024 0z"/></clipPath><style>.fil1{fill:#26c6da}.fil8{fill:#90c255}.fil6{fill:#9cd45b}.fil3{fill:#c2185b}</style></defs><g id="Layer_x0020_1"><path d="M1024 0c565.538 0 1024 458.462 1024 1024s-458.462 1024-1024 1024S0 1589.538 0 1024 458.462 0 1024 0z" style="fill:#80deea"/><g style="clip-path:url(#id0)"><g id="_385690864"><path id="_3650103361" class="fil1" d="M1380.48 717.053 2516.36 1852.93l-7.72-8.72-7.95-8.57-8.18-8.38-8.39-8.19-8.56-7.95-8.73-7.71-8.9-7.49-9.05-7.24-9.21-7.01-9.36-6.76-9.51-6.52-9.66-6.28-9.79-6.03-9.92-5.78-10.06-5.54-10.18-5.28-10.3-5.02-10.41-4.77-10.53-4.52-10.63-4.25-10.74-3.99-10.84-3.73-10.93-3.47-11.02-3.19-11.11-2.93-11.19-2.66-11.26-2.39-11.34-2.11-11.41-1.84-11.46-1.56-11.53-1.28-11.58-1-11.63-.71-11.68-.43-11.72-.15-11.72.15-11.68.43-11.63.71-11.58 1-11.53 1.28-11.46 1.56-11.41 1.84-11.33 2.11-11.27 2.39-11.19 2.66-11.1 2.93-11.03 3.19-10.93 3.47-10.83 3.73-10.74 3.99-10.64 4.25-10.53 4.52-10.41 4.77-10.3 5.02-10.18 5.28-10.06 5.54-9.92 5.78-9.79 6.03-9.65 6.28-9.51 6.52-9.37 6.76-9.21 7.01-9.05 7.24-8.9 7.49-8.73 7.71-8.56 7.95-8.38 8.19-8.19 8.38-7.95 8.57-7.72 8.72-7.48 8.9-7.24 9.06-7.01 9.21-6.76 9.36-6.53 9.51-6.27 9.65-6.03 9.79-5.79 9.93-5.53 10.05-5.28 10.18-5.02 10.3-4.77 10.42-4.52 10.52-4.25 10.64-3.99 10.74-3.73 10.83-3.47 10.94-3.19 11.02-2.93 11.11-2.66 11.18-2.39 11.27-2.11 11.33-1.84 11.41-1.56 11.47-1.28 11.52-1 11.58-.71 11.64-.44 11.67-.14 11.72L553.6 1024l.144-11.72.431-11.68.716-11.628.998-11.582 1.28-11.526 1.56-11.468 1.837-11.404 2.113-11.338 2.387-11.264 2.66-11.187 2.929-11.107 3.197-11.022 3.465-10.932 3.729-10.837 3.993-10.739 4.254-10.636 4.513-10.527 4.77-10.416 5.026-10.301 5.28-10.178 5.531-10.055 5.783-9.925 6.031-9.79 6.276-9.653 6.522-9.509 6.764-9.363 7.007-9.21 7.245-9.056 7.482-8.894 7.717-8.73 7.951-8.561 8.184-8.387 8.387-8.184 8.561-7.951 8.73-7.717 8.894-7.482 9.056-7.245 9.21-7.007 9.363-6.764 9.509-6.522 9.653-6.276 9.79-6.031 9.925-5.783 10.055-5.531 10.178-5.28 10.301-5.026 10.416-4.77 10.527-4.513 10.636-4.254 10.739-3.993 10.837-3.729 10.932-3.465 11.022-3.197 11.107-2.929 11.187-2.66 11.264-2.387 11.338-2.113 11.404-1.837 11.468-1.56 11.526-1.28 11.582-.998 11.628-.716 11.68-.431 11.72-.144 11.72.144 11.68.431 11.63.716 11.58.998 11.53 1.28 11.46 1.56 11.41 1.837 11.34 2.113 11.26 2.387 11.19 2.66 11.1 2.929 11.03 3.197 10.93 3.465 10.84 3.729 10.73 3.993 10.64 4.254 10.53 4.513 10.41 4.77 10.3 5.026 10.18 5.28 10.06 5.531 9.92 5.783 9.79 6.031 9.66 6.276 9.5 6.522 9.37 6.764 9.21 7.007 9.05 7.245 8.9 7.482 8.73 7.717 8.56 7.951 8.38 8.184 8.19 8.387 7.95 8.561z"/><path id="_365010144" class="fil1" d="m1394.89 1023.99 1135.88 1135.88-.49 19.09-1.43 18.84-2.36 18.56-3.26 18.26-4.14 17.95-5 17.6-5.83 17.23-6.64 16.85-7.42 16.42-8.19 16-8.93 15.53-9.65 15.05-10.34 14.54-11.01 14.01-11.65 13.46-12.28 12.88-12.88 12.28-13.46 11.66-14.01 11.01-14.54 10.34-15.05 9.64-15.53 8.94-15.99 8.19-16.43 7.42-16.85 6.65-17.23 5.83-17.6 4.99-17.94 4.15-18.27 3.26-18.56 2.36-18.84 1.43-19.09.49L1024 1394.89l19.09-.48 18.84-1.43 18.56-2.36 18.26-3.27 17.95-4.14 17.6-5 17.23-5.83 16.85-6.64 16.42-7.43 16-8.19 15.53-8.93 15.05-9.64 14.54-10.35 14.01-11.01 13.45-11.65 12.88-12.28 12.28-12.89 11.66-13.45 11.01-14.01 10.34-14.55 9.65-15.04 8.93-15.54 8.19-15.99 7.42-16.43 6.64-16.84 5.83-17.23 5-17.6 4.14-17.95 3.26-18.26 2.36-18.57 1.43-18.83z"/><path id="_365010216" class="fil1" d="m1551.87 1210.85 1135.88 1135.89-1.85 5.14-1.9 5.13-1.95 5.1-2 5.09-2.05 5.06-2.09 5.04-2.14 5.02-2.2 5-2.24 4.98-2.29 4.95-2.34 4.93-2.38 4.91-2.43 4.88-2.48 4.86-2.53 4.84-2.57 4.8-2.62 4.79-2.67 4.75-2.71 4.74-2.76 4.7-2.8 4.68-2.85 4.65-2.9 4.62-2.94 4.6-2.98 4.56-3.03 4.54-3.08 4.51-3.12 4.47-3.17 4.45-3.21 4.42-3.25 4.39-3.3 4.36-1135.88-1135.89 3.3-4.35 3.25-4.39 3.21-4.42 3.17-4.45 3.12-4.47 3.07-4.51 3.03-4.54 2.99-4.57 2.94-4.59 2.9-4.62 2.85-4.65 2.8-4.68 2.76-4.71 2.71-4.73 2.67-4.75 2.62-4.79 2.57-4.81 2.53-4.83 2.48-4.86 2.43-4.88 2.38-4.91 2.34-4.93 2.29-4.95 2.24-4.98 2.19-5 2.15-5.02 2.09-5.04 2.05-5.07 2-5.08 1.95-5.11 1.9-5.12z"/><path id="_365010480" class="fil1" d="M1298.54 774.618 2434.43 1910.5l11.65 13.46 11.01 14.01 10.34 14.54 9.65 15.05 8.93 15.53 8.19 15.99 7.42 16.43 6.64 16.84 5.83 17.23 5 17.6 4.14 17.95 3.26 18.26 2.36 18.56 1.43 18.84.49 19.08-1135.88-1135.88-.49-19.08-1.43-18.84-2.36-18.561-3.26-18.265-4.14-17.943-5-17.6-5.83-17.233-6.64-16.843-7.42-16.427-8.19-15.993-8.93-15.53-9.65-15.048-10.34-14.541-11.01-14.01z"/><path id="_365010504" class="fil1" d="m553.6 1024 1135.88 1135.88.14 11.72.44 11.68.71 11.63 1 11.58 1.28 11.53 1.56 11.47 1.84 11.4 2.11 11.34 2.39 11.26 2.66 11.19 2.93 11.11 3.19 11.02 3.47 10.93 3.73 10.84 3.99 10.74 4.25 10.63 4.52 10.53 4.77 10.42 5.02 10.3 5.28 10.17 5.53 10.06 5.79 9.92 6.03 9.79 6.27 9.66 6.53 9.51 6.76 9.36 7.01 9.21 7.24 9.05 7.48 8.9 7.72 8.73 7.95 8.56 8.19 8.39 8.38 8.18 8.56 7.95 8.73 7.72L717.053 1380.48l-8.73-7.72-8.561-7.95-8.387-8.19-8.184-8.38-7.951-8.56-7.717-8.73-7.482-8.9-7.245-9.05-7.007-9.21-6.764-9.37-6.522-9.5-6.276-9.66-6.031-9.79-5.783-9.92-5.531-10.06-5.28-10.18-5.026-10.3-4.77-10.41-4.513-10.53-4.254-10.64-3.993-10.73-3.729-10.84-3.465-10.93-3.197-11.03-2.929-11.1-2.66-11.19-2.387-11.26-2.113-11.34-1.837-11.41-1.56-11.46-1.28-11.53-.998-11.58-.716-11.63-.431-11.68z"/><path id="_365010552" class="fil1" d="m1023.98 1394.89 1135.88 1135.89-19.08-.49-18.83-1.43-18.56-2.36-18.26-3.26-17.94-4.14-17.6-5-17.23-5.83-16.85-6.64-16.42-7.43-15.99-8.19-15.53-8.93-15.05-9.65-14.54-10.34-14.01-11.01-13.46-11.65L774.629 1298.54l13.457 11.66 14.011 11.01 14.54 10.34 15.047 9.65 15.532 8.93 15.99 8.19 16.428 7.43 16.841 6.64 17.231 5.83 17.599 5 17.941 4.14 18.262 3.26 18.557 2.36 18.835 1.43z"/><path id="_365010672" class="fil1" d="M1024.02 1584 2159.9 2719.88h-.02l-13.95-.17-13.89-.51-13.85-.85-13.78-1.19-13.72-1.53-13.66-1.86-13.57-2.18-13.5-2.52-13.41-2.84-13.32-3.17-13.22-3.49-13.12-3.81-13.02-4.12-12.9-4.44-12.79-4.76-12.66-5.06-12.54-5.37-12.4-5.68-12.26-5.99-12.12-6.29-11.97-6.58-11.82-6.89-11.65-7.17-11.5-7.48-11.32-7.76-11.14-8.05-10.97-8.34-10.78-8.63-10.58-8.9L658.584 1448.37l10.588 8.9 10.779 8.63 10.965 8.34 11.146 8.05 11.321 7.76 11.492 7.47 11.656 7.18 11.817 6.89 11.971 6.58 12.119 6.29 12.263 5.98 12.402 5.68 12.535 5.38 12.664 5.06 12.785 4.75 12.903 4.45 13.015 4.12 13.121 3.81 13.224 3.49 13.319 3.16 13.41 2.85 13.497 2.51 13.576 2.19 13.652 1.86 13.721 1.52 13.784 1.19 13.845.86 13.896.51 13.95.17z"/><path id="_365011176" class="fil1" d="M1448.37 658.584 2584.25 1794.47l8.9 10.58 8.63 10.78 8.34 10.97 8.05 11.14 7.76 11.33 7.47 11.49 7.18 11.65 6.89 11.82 6.58 11.97 6.29 12.12 5.98 12.26 5.68 12.41 5.38 12.53 5.06 12.66 4.76 12.79 4.44 12.9 4.12 13.02 3.81 13.12 3.49 13.22 3.17 13.32 2.84 13.41 2.52 13.5 2.18 13.57 1.86 13.66 1.53 13.72 1.19 13.78.85 13.85.51 13.89.17 13.95-.03 5.97-.1 5.96-.15 5.95-.23 5.96-.28 5.95-.35 5.94-.42 5.94-.47 5.94-.54 5.92-.6 5.92-.67 5.92-.73 5.9-.79 5.9-.85 5.88-.92 5.88-.97 5.87-1.04 5.85-1.1 5.85-1.17 5.83-1.22 5.83-1.29 5.8-1.35 5.8-1.41 5.78-1.47 5.77-1.54 5.75-1.59 5.73-1.66 5.72-1.72 5.71-1.77 5.68-1.84 5.67-1.9 5.65-1.96 5.64-1135.88-1135.89 1.96-5.63 1.9-5.65 1.84-5.67 1.77-5.69 1.72-5.7 1.66-5.72 1.59-5.74 1.53-5.75 1.48-5.76 1.41-5.78 1.35-5.8 1.28-5.81 1.23-5.82 1.16-5.83 1.11-5.85 1.04-5.85.97-5.87.92-5.88.85-5.88.79-5.9.73-5.91.66-5.91.61-5.92.54-5.93.47-5.93.42-5.94.35-5.94.28-5.95.22-5.96.16-5.96.1-5.96.03-5.96-.17-13.95-.51-13.896-.86-13.845-1.19-13.784-1.52-13.721-1.86-13.652-2.19-13.576-2.51-13.497-2.85-13.41-3.16-13.319-3.49-13.224-3.81-13.121-4.12-13.015-4.45-12.903-4.75-12.785-5.06-12.664-5.38-12.535-5.68-12.402-5.98-12.263-6.29-12.119-6.58-11.971-6.89-11.817-7.18-11.656-7.47-11.492-7.76-11.321-8.05-11.146-8.34-10.965-8.63-10.779z"/><path id="_365011224" class="fil1" d="m1506 1399.84 1135.88 1135.88-138.3 1.77L1367.7 1401.6z"/><path id="_365011440" class="fil1" d="m1024 1394.89 1135.88 1135.89h-.02L1023.98 1394.89z"/><path id="_365011344" class="fil1" d="M1024.02 1494.4 2159.9 2630.28v89.6L1024.02 1584z"/><path id="_385691224" class="fil1" d="M1419.98 628.022c105.35 105.349 164.023 246.969 164.023 395.978 0 63.625-10.904 126.88-32.134 186.853-19.47 54.991-47.422 106.658-82.825 152.961l36.955 36.024-138.3 1.767-1.769-138.301 38.5 37.527c26.675-36.627 47.89-77.034 63.031-119.805 17.844-50.401 26.941-103.56 26.941-157.025 0-125.205-49.255-244.105-137.776-332.625-88.52-88.52-207.419-137.776-332.625-137.776-125.205 0-244.105 49.255-332.625 137.776C602.856 779.896 553.6 898.795 553.6 1024c0 125.205 49.256 244.105 137.776 332.625 88.52 88.52 207.42 137.776 332.625 137.776h.016v89.6H1024c-149.009 0-290.629-58.673-395.978-164.022C522.673 1314.63 464 1173.01 464 1024.002c0-149.01 58.674-290.63 164.023-395.978C733.373 522.674 874.993 464 1024.001 464c149.01 0 290.63 58.673 395.978 164.023zm-395.977 25.083c204.856.012 370.884 166.048 370.884 370.887 0 204.846-166.028 370.89-370.884 370.902h-.021c-204.795-.002-370.868-166.047-370.868-370.899.002-204.848 166.073-370.889 370.868-370.889h.021z"/></g></g><path d="M1024 0c565.538 0 1024 458.462 1024 1024s-458.462 1024-1024 1024S0 1589.538 0 1024 458.462 0 1024 0z" style="fill:none"/><path class="fil3" d="M553.6 1024c0 125.205 49.255 244.105 137.776 332.625 88.52 88.52 207.419 137.776 332.625 137.776h.015v89.6h-.015c-149.009 0-290.629-58.673-395.979-164.021-105.349-105.35-164.021-246.97-164.021-395.98 0-149.008 58.672-290.628 164.021-395.978C733.372 522.672 874.992 464 1024.001 464s290.629 58.672 395.979 164.02c105.349 105.35 164.021 246.97 164.021 395.98 0 63.625-10.903 126.88-32.133 186.853-21.247 60.012-52.597 116.067-92.71 165.51-15.543 19.158-43.8 22.065-62.938 6.504-19.127-15.553-22.029-43.765-6.502-62.906 33.666-41.494 59.915-88.578 77.742-138.937 17.845-50.4 26.941-103.56 26.941-157.025 0-125.205-49.255-244.105-137.776-332.625C1268.105 602.855 1149.206 553.6 1024 553.6c-125.205 0-244.105 49.256-332.625 137.776C602.855 779.895 553.6 898.795 553.6 1024z"/><path class="fil3" d="M1365.93 1263.3 1506 1399.84l-138.3 1.76z"/><path d="M1088.1 1220.38c.09.007.197.007.32.001-1.766-.653-2.518-.92-.32-.001z" style="fill:#9cd45b;fill-rule:nonzero"/><path d="M1394.89 1023.99c0 204.853-166.039 370.902-370.904 370.902-204.797-.002-370.869-166.047-370.869-370.899.002-204.847 166.071-370.889 370.869-370.889 204.865 0 370.904 166.042 370.904 370.887z" style="fill:#009688"/><path class="fil6" d="m1054.53 954.453 1.656.097 1.06.054-2.716-.151zm270.606 75.278s-2.308 1.506-3.6 2.514c-1.283.99-3.328.754-6.928.768-3.597.022-2.836.774-5.664.787-2.856.011-1.823 1.758-4.42 2.026-2.595.267-4.43.526-5.994.54-1.574.008-1.542-1.997-2.585-1.987l-1.506-1.565-.038-.438c0-.758.018-2.017.029-3.517 0-1.51-1.042-2.506-2.355-3.5-1.313-1.001-1.293-2.012-3.137-4.019-1.836-2.009-4.461-4.524-7.13-5.02-2.645-.516-.25-1.51-3.728-6.056-3.478-4.558-1.343-1.773-2.153-5.067-.33-1.292-.694-1.83-1.175-2.2-.741-.556-1.784-.679-3.407-2.365-2.727-2.814-2.176-1.794-2.727-2.814-.54-1.028-.321-4.064-.341-4.828 0-.756-3.047-6.638-4.2-9.456-1.143-2.836-2.998-1.322-2.204-2.09.439-.402.059-.911-.524-1.94-.489-.867-1.091-2.094-1.523-3.972-.912-4.112-2.907-7.24-5.472-10.138-2.555-2.897-1.725-2.37-1.797-4.445-.048-2.072-4.599-5.555-4.649-6.856-.039-1.304-1.514-3.691-.932-2.893.58.799 2.353 3.97 3.237 5.29.864 1.32.31 1.053 3.979 3.976 3.659 2.935 1.063-.736 1.233-3.594.07-.873-.15-2.262-.449-3.76-.753-3.432-2.157-7.507-2.728-7.527-.821-.017-1.383-.299-3.609-.358-2.185-.06-1.673-.571-3.878-.636-2.236-.066-1.734-1.629-5.354-1.736-3.629-.111-3.81 2.25-6.575 3.23-2.756.966-7.76-3.398-9.193-3.72-1.431-.309-5.702-.187-6.848-.226-.809-.026-1.53-.7-2.463-1.128l-1.333-.327c-1.724-.049-5.587-2.05-5.587-2.05.004 0-1.471-.855-3.327-2.795-1.823-1.938-4.378-.42-6.143-.495-1.744-.061-2.518 2.328-3.941 3.35-1.412 1.01.21 4.282.281 6.161.091 1.864-1.142.5-2.585 1.517-1.424 1.012-5.024.106-6.869-1.306-1.853-1.41-.63-1.092-2.213-2.487-1.542-1.398-5.714-.747-6.919-.787-1.202-.051-1.825-.069-2.245-2.784-.429-2.723-2.575-3.343-2.575-3.343.01-.002-4.88-.736-7.038-.818-2.133-.085-4.009-.716-5.543-.773l-2.314-1.643-2.145-1.272c-1.847-.074-2.557-1.742-2.557-1.742s-1.313-1.429-1.063-3.058c.21-1.645 1.734-2.393 2.586-3.73.864-1.327-.813-3.597-1.474-4.458l1.977-3.495s-2.7 1.525-2.78.156c-.078-1.393-3.826-2.135-3.826-2.135-1.334.217-2.678.42-4.022.643 0 0-3.117.111-4.06.073-.94-.054-4.08.075-4.08.075-1.802-.097-3.598-.182-5.413-.285.002-.002-2.816.424-8.891.938-6.104.535-6.456.23-7.428.182-.972-.04-3.236.401-3.236.401s-3.903.349-5.184 1.13c-1.28.77-1.585 1.597-2.898 1.529-1.321-.069-2.645.145-5.263 1.134-2.625.986 0 0-.94 1.071l-1.863 1.122-1.115-.142c-1.685-.361-1.685-.645-2.708-.98-1.02-.338-2.023-.097-3.376-.17-1.355-.069-3.037-.156-4.393-.219-1.372-.074-3.446-1.313-3.446-1.313s-1.444-2.04-3.83-2.458c-2.408-.406-2.024 1.027-2.024 1.027 0-.004-.293 1.409-.622 2.516-.301 1.117-1.646 2.473-1.595 3.882.032 1.418-2.727 1.287-3.406 2.384-.661 1.108-2.387 1.034-4.473 1.779-2.074.748-3.839.38-5.203 2.298-1.372 1.928-3.117 3.277-3.446 4.695-.31 1.403-1.736 1.909-1.716 3.612.042 1.71.784 3.736.784 3.736l-.313 2.27s-2.836 1.876-2.807 3.876c.031 1.981-5.363 1.509-5.373 1.509.01 0-3.948 1.566-5.03 2.682-1.083 1.097-4.001 1.566-5.095 1.81l-.048.017c-.992.344.742 3.771-5.064 6.136-5.881 2.398-5.885 7.03-6.635 8.168-.74 1.132-1.114 1.7-2.606 3.11-1.494 1.402-2.235 4.274-2.235 4.274 0-.004-3.768 3.394-5.294 5.688-1.504 2.282-1.132 1.14-1.504 3.165-.38 2.03.754 2.052 1.515 3.51.753 1.47.38 1.176 2.276 1.781 1.895.605 0 3.779 0 6.388 0 2.608.381 1.451.381 4.063 0 2.597-.753 3.458-.753 6.655 0 1.009 0 1.679-.02 2.188-.049 1.088-.221 1.273-.741 1.875l-3.43 4.933s-.77 1.733-.77 3.197v3.489c0 1.742 0 0-.754 2.627-.77 2.63 0 0-.38 2.033-.39 2.046 2.676 3.475 2.676 3.475l.19.23 1.325 1.492c1.523 1.737 4.921.825 4.921.825-.84 1.742 1.253 2.799 2.375 3.23l.655.22s1.492 2.295 2.995 3.14c1.486.842 1.122 1.416 3.347 2.827 1.375.875 2.315 2.395 2.847 3.432l.492 1.12-.01 3.444c0 .866 2.586 2.244 3.678 3.09 1.105.831 1.835 1.098 4.402 2.198l1.443.79c1.174.843 1.455 1.708 2.546 2.543 1.444 1.124 7.939 5.208 7.92 5.208 0-.003 3.937 1.884 6.745 3.788 2.848 1.898 3.901.73 3.901.73l.893-.148c1.011-.18 2.023-.353 3.006-.523.012-.008 3.55-1.807 4.592-1.827 1.051-.034 2.486-1.492 6.294-1.594 3.839-.094 4.853-.119 7.95-.21 3.098-.08 1.373.798 3.396 1.586 1.205.46 2.387.331 3.188.155l.904-.269c1.141-.406 2.295-.808 3.418-1.202 0 0 2.705-.633 3.728-1.216 1.023-.583 3.069-1.751 4.752-1.785 1.664-.05 2.025-1.43 4.02-1.469 2.006-.06 2.014-1.713 2.026-1.713l1.122-.185c1.352-.22 3.527-.569 4.842-.776l.25-.031c1.924-.272 4.12-.071 6.635-.124 2.597-.067 2.265 1.041 5.774 3.137 3.51 2.098.611 2.165.21 4.639-.38 2.461.932 2.154 3.168 2.092 2.268-.065 4.542-1.211 6.446-1.264 1.914-.054 6.407-1.8 6.387-1.8l.07.078 2.083 2.573s1.544 1.043 3.64 4.235c1.493 2.276.782 3.636 0 4.836l-.82 1.421c-.452 1.096-1.086 2.812-1.455 4.308l-.33 1.983c-.083 1.657-2.319 3.077-3.109 7.203-.65 3.475 4.53 9.397 9.182 13.509l2.557 2.133c1.202.89 1.983 1.967 2.565 3.112.702 1.378 1.063 2.896 1.294 4.416.38 2.6.412 5.242 1.162 7.333 1.585 4.336 4.58 4.743 2.755 4.825-1.831.091-1.019 6.698.734 7.715 1.734 1.02 1.904 7.67-2.094 12.94-3.45 4.526-7.368 14.972-9.104 21.517a50.783 50.783 0 0 0-.66 2.81c-.991 5.731 9.384 24.277 9.321 24.326.002-.017 1.824 12.218 1.253 17.66-.44 4.509 3.56 9.653 5.114 12.286l.58 1.228c.392 1.808-.099 6.692 3.38 12.076 3.497 5.39-2.286 10.011 1.022 16.803 3.279 6.82 6.503 4.176 11.536.778 5.055-3.379 7.59-.303 9.934-.386 2.307-.089 7.891-3.484 11.37-3.624 3.458-.133 2.977-5.84 10.163-8.632 7.17-2.813 8.502-4.773 10.315-11.093 1.816-6.294 5.984-8.3 10.274-11.557 3.72-2.835 3.852-4.108 2.686-7.99l-.588-1.853c-1.705-5.378 9.823-8.842 9.812-8.842 1.954-.077 3.627-2.859 4.702-8.826 1.071-5.962.85-9.73-2.185-13.089-3.05-3.352 1.484-4.409 3.538-5.642 2.014-1.239 3.807-2.75 5.592-4.543 1.795-1.789 2.498-3.814 3.691-4.99 1.202-1.183 5.953-2.782 7.408-3.97 1.443-1.205 4.3-2.992 6.393-5.87 2.097-2.89 2.387-3.178 1.777-6.218-.615-3.03.218-3.072.598-9.141.384-6.055.984-7.14.984-7.14 0-.004-.472-1.311-1.023-3.068-.69-2.179-1.543-5.063-1.873-7.115-.602-3.761.29-5.395-.701-6.961-.993-1.574-1.435-3.157-1.506-6.876-.089-3.609 2.347-1.517 2.597-4.112l.02-.193c.142-2.901.463-3.96 2.117-5.064 1.653-1.088-.322-4.72 1.843-5.28 1.793-.477 3.848-3.298 4.49-4.24l.202-.311 3.589-3.453c.56-.798 4.12-4.998 4.96-6.549.843-1.563 4.871-4.202 5.664-4.992.804-.774 3.43-1.072 3.981-2.1.552-1.043 4.3-5.672 5.624-6.456 1.312-.779 3.958-4.362 5.051-6.642 1.072-2.29 1.643-4.816 4.803-10.106 3.157-5.312 3.757-16.027 5.552-18.263 1.796-2.247-1.011-1.239-1.011-1.242zM761.976 822.699s1.995-.788 3.177-1.6c1.185-.79 4.032-5.686 4.732-6.317l-8.039.463c-1.083 1.459-3.99 5.684-4.85 6.692-.853 1.023-.504 5.266-1.504 5.65-.983.382-2.958 4.816-4.291 5.969-1.332 1.18-2.997 4.43-2.997 4.422l1.644 2.656c1.043-.392 2.096-.787 3.147-1.199.772-1.264 1.554-2.528 2.327-3.816l3.919-1.503c-.21-1.02-.422-2.052-.623-3.075.082-1.25.182-2.51.27-3.773 1.026-1.515 2.057-3.035 3.088-4.569zM817.903 826.986c1.312-.56 4.96.78 5.802 2.322.832 1.55 1.194 2.017 3.017-.659 1.856-2.7.25-3.61 4.783-5.877 4.552-2.27 6.223-4.595.94-4.888-5.282-.337-4.51-.994-8.3-1.326-3.788-.333-6.714 2.56-7.286.823-.582-1.712 5.875-4.148 5.883-4.148.002 0 4.492-4.242.954-3.055-3.569 1.194-10.297 1.745-7.089.384 3.188-1.363-2.546-1.591-2.535-1.597l-1.262-2.5s-5.035.454-4.071-.646c.944-1.083-4.28-.224-3.288-.988 1.022-.773 1.764-3.137.972-2.81-.79.34-6.016-.55-9.371 1.205-3.34 1.756-.825 5.156.48 4.614 1.313-.557 3.41.261 3.41.261l-3.6 1.854-6.115 3.23c.582-.91 1.162-1.836 1.732-2.757.574-1.042 1.146-2.06 1.706-3.097l-.382-2.253c-1.633.808-3.267 1.597-4.881 2.39-1.363.673-2.717 1.355-4.07 2.032l-2.596 2.443a621.297 621.297 0 0 1 1.685-4.475c-.964 1.315-1.926 2.628-2.878 3.936-.913 1.1.76 10.22-.259 10.6-1.004.418-3.53-2.931-3.53-2.931s1.683-2.697 2.016-3.863c.33-1.156-3.24-2.773-3.24-2.778-1.793 2.21-3.557 4.41-5.31 6.584l-3.07 3.6c.151 1.273.31 2.56.471 3.824l4.562-1.477c-1.492 1.142-2.978 2.3-4.45 3.43l.682 2.048c1.233-.492 2.475-.977 3.728-1.486 0-.002 5.715-.977 10.005-2.73 4.299-1.754 8.388-3.461 8.388-3.461a679.422 679.422 0 0 0 1.926-3.117c-.01.008 5.783-.085 6.746 2.154.943 2.232 4.783 1.923 5.143 4.043.37 2.125-.932 4.267-3.187 5.555-2.266 1.262-3.248 6.45-3.248 6.441 0-.002.07 1.874-1.714 2.61-1.785.741-5.333.624-6.476 1.71-1.153 1.108-3.49 2.993-3.477 2.993-.012.024-3.83 6.543-1.094 5.447 2.727-1.12 1.815-1.68 3.557-2.385 1.725-.696 8.66-5.72 10.095-1.037 1.416 4.683 5.013 3.47 6.607 3.129 1.583-.356 6.424.386 6.263-.473-.16-.855 3.842-1.892-.199-4.196-4.049-2.33-2.236-4.646.04-2.81 2.287 1.824 4.933 2.554 5.996-.97 1.063-3.549 4.54-4.722.701-7.177-3.798-2.47-4.06-3.972-4.06-3.953-.009 0 1.423-3.174 2.748-3.742zM834.832 887.545c-4.44 2.068-4.43 2.06-4.43 2.06l.37.409s-3.276 3.276-4.339 6.174c-1.055 2.887-2.257 4.999-3.95 6.201-1.673 1.225-2.668 7.808-2.668 7.794.011-.002-.028.014 6.147-2.384 6.185-2.418 8.78-5.074 8.77-5.074l1.052 2.023c.994.153 2.007.3 3.007.443.002-.003 1.866-.73 2.767-1.904.904-1.177.821-2.782.821-2.782l-.82-1.034c-.22-.93-.421-1.838-.631-2.763-.12-.957-.242-1.923-.362-2.889 0 0-3.287-.321-4.972 1.17-1.694 1.51-2.697.807-2.697.807.463-.91.924-1.83 1.393-2.755.002 0-2.975.3-4.038.954 1.515-1.369 8.41-8.251 4.58-6.45zM755.912 800.375c1.163-.579 2.316-1.179 3.487-1.747l1.086 1.35 2.614-.7c-.151-1.252-.29-2.514-.452-3.773-.96-.216-1.913-.428-2.876-.65-.932.377-1.875.75-2.808 1.131-1.55.983-3.085 1.949-4.63 2.92 1.003-.042 1.986-.07 2.977-.096l.602 1.565zM754.268 815.117c1.494-.58 3.438-.307 3.68-1.79.248-1.478.431-3.3.431-3.3l.48-3.005c-1.413.206-2.808.417-4.22.614l.211 2.377c0 .004-.531 4.053-1.043 2.859-.52-1.201-1.245-4.77-1.855-3.821-.63.952-2.587 4.506-2.575 4.495.471.991.94 1.957 1.403 2.932 0 0 2.005-.775 3.488-1.361z"/><path class="fil6" d="M739.843 832.163c1.111.256 2.215.513 3.337.774.002-.004-.782 3.6 2.116 2.508 2.908-1.082 2.506-2.926 2.506-2.926 0 .011 3.538-1.992 4.7-2.78 1.166-.766-.54-5.146-.55-5.16l2.215-.857c-.008 0 2.325-4.3 1.504-5.7-.833-1.401-3.458 2.73-4.7 3.197-1.233.48-3.699 1.408-3.699 1.408l-1.875 2.41c-.08 1.282-.152 2.55-.23 3.796l-2.468-.406c-2.463-.438-2.856 3.736-2.856 3.736zM986.902 695.41c-5.785 1.714-10.297 3.808-11.67 4.47-1.373.64-7.037 2.696-7.67 2.912-.59.204 3.01-2.35.04-2.986l-.77-.176.06-.086-1.765-1.745-2.184-.117-2.154-1.178-3.402 1.449-2.995.16-3.259-.132-2.585 1.947-.6-1.003-2.037.8c-1.04.203-2.105.385-3.15.583l-1.883 1.123-.039-.227-1.762.488-2.507 1.356c-.982.431-1.985.858-2.957 1.284l-.754-.605c-.9.16-1.823.313-2.736.48a215.24 215.24 0 0 0-2.747 2.094l-1.682 1.216-1.154-.46c-1.203.44-2.416.893-3.629 1.325l-1.063 1.781-.82-.46c-.973.318-1.947.636-2.919.95l-1.504 1.817-2.213 2.213-1.534-.05c-1.063.483-2.126.97-3.188 1.457l-1.194.072a563.776 563.776 0 0 1-2.316 3.174l-1.264.363-1.663 1.407-2.105.684-.591-.516-2.245 2.133c-1.074.68-2.144 1.362-3.207 2.051-.663 1.15-1.314 2.325-1.967 3.49-1.08.597-2.166 1.2-3.256 1.802 0 0 2.545-2.29-3.45.103-5.965 2.411-9.854 3.998-11.497 4.653-1.634.677-6.325 4.422-6.646 5.317-.31.918-4.552 2.932-4.542 2.932-.048 0-16.65 11.085-13.122 10.38 3.499-.699 5.255 1.373.651 3.31-4.609 1.956-8.57 6.94-14.462 9.447-5.894 2.508-9.074 7.674-3.82 5.423 5.275-2.242 11.656-4.463 11.668-4.463-.048.008-14.055 9.763-7.971 8.643 6.067-1.096 5.004.089 9.534-1.844 4.552-1.946 5.253-5.964 10.615-5.527 5.345.432 6.305-.466 6.96 2.677.65 3.131 3.355 5.575 1.661 8.678-1.693 3.103-5.433 5.203-5.433 5.203.012.003-.54 3.555 3.197 1.458 3.762-2.091 5.965-6.112 6.396-4.65.443 1.473 3.498 4.61 3.498 4.61.003 0-4.149-.315-6.364.643-2.226.948-4.871 3.27-2.258 3.543 2.61.278 6.96-.915 7.571-1.174.61-.265-.54 3.48-2.126 4.396-1.594.918-6.888 5.52-6.888 5.52 0-.005-4.71 5.286-3.437 10.392 1.256 5.075 2.076 6.044 2.76 8.855.689 2.813.228 8.697 2.322 9.524 2.098.833 2.428 2.623 5.615 2.11 3.178-.515 5.203-1.61 5.803-1.88.623-.26 1.292.963 2.557 1.713 1.265.729 2.486.202 6.024-1.332.952-1.274 1.916-2.543 2.876-3.828 1.145-2.208 2.93-7.106 2.93-7.106s1.884-3.2 1.15-4.649c-.719-1.432-.028 1.112 3.69-3.359 3.72-4.469 4.5-5.257 4.119-7.288-.398-2.046-1.464-2.927-.61-3.287.842-.37 1.894-3.285 5.301-4.744 3.422-1.485 2.126 1.526 8.712-4.216 6.607-5.726 6.575-5.936 9.684-9.278 3.098-3.345.072-3.177 4.481-5.944 4.422-2.773 4.049-2.173 8.661-5.222 4.612-3.064 6.286-5.32 8.28-6.146 1.976-.825 8.88-6.597 15.166-10.688 6.305-4.103 5.072-3.151 3.96-2.699-1.113.437-10.325 2.359-12.99 3.23-2.678.853 1.823-3.673 1.812-3.662.003 0 3.128-3.06 3.68-1.702.543 1.352 1.764 2.421 5.734.835 3.97-1.605 6.464-3.245 3.688-4.591-2.736-1.37-2.514-1.465-4.382-2.294-1.863-.838-2.252-.465-4.881-.554-2.606-.099-5.302-.63-4.22-1.043 1.095-.446 3.538-2.091 7.007-3.426a487.317 487.317 0 0 1 6.274-2.421c1.737-.668 4.413-.364 4.323-1.672-.06-.846-1.444-1.002-2.645-.915 1.593-.451 3.968-1.352 5.27-2.75 2.237-2.4 4.27-4.472 1.273-3.373-2.994 1.116 2.066-2.986 2.057-2.98 0-.003 1.611-3.698-2.838-2.095-4.45 1.629-8.19.279-3.129-1.565 5.084-1.827 8.45-3.888 7.3-3.933-1.163-.03-7.57-.253-7.57-.259-.008.009-.46-1.233 6.746-5.952 7.158-4.653 7.97-8.164 9.794-8.749 1.836-.577 3.236-1.887 5.795-2.871 2.546-.985 3.727-2.838 3.727-2.838.004.008-.25-1.66-6.001.034zM979.091 759.674c-2.696 2.173-2.706 1.316-5.223 2.339-2.516 1.03-3.648 1.491-5.033 2.935-1.352 1.435-3.379 2.483-5.19 3.242-1.825.747-1.063-1.106-2.967-1.623-1.904-.548-8.983 5.914-7.78 6.743 1.213.804 3.8-1.818 6.987-3.14 3.188-1.318-.14 1.373-.822 1.656l-4.651 4.372c1.916-.37 3.848-.75 5.794-1.13a590.996 590.996 0 0 0-2.395 3.41c0-.002 4.528-2.113 5.682-1.73 1.142.392 4.672.012 6.778-.87 2.094-.883 4.43-1.847 4.418-2.708-.008-.871 4.924-4.417 8.784-6.424 3.85-2.025 6.345-7.118 6.345-7.104-1.464-2.634-8.07-2.133-10.727.032zM760.965 813.526s2.947-1.532 4.018-1.603c1.074-.097 3.219-1.645 3.219-1.645 0-.002.08-3.867-1.181-3.36-1.274.51-3.93 2.275-3.93 2.275-.703 1.451-1.424 2.894-2.126 4.333zM775.53 1031.89s-5.435-2.401-12.38-4.075c-6.957-1.682-6.98-.295-8.831-1.14-1.845-.829-1.686-1.103-4.372-.099-2.656.997-4.9 3.455-5.654 4.807-.741 1.344-.289 2.118-.289 2.118.622-.182 4.779-3.856 6.115-4.018 1.324-.154 1.17 1.704 2.855 1.219 1.685-.48 4.14-.714 5.282.094 1.166.807 3.13-1.12 3.13-1.12l1.434 2.572 2.384.238-.08 2.086c-.59.384 7.35-.224 10.406-2.682zM964.798 1106.57c-2.478-2.657.67-5.265-3.37-4.845-3.999.423-2.495 2.114-8.53.085-5.985-2.028-8.792-3.737-10.376-4.372-1.593-.643-7.006-3.612-9.291-3.539-2.307.091-3.29.206-5.715.521-2.426.295-4.29 1.323-6.265.767-1.955-.55-6.064-2.77-9.303 1.37l-1.115 1.536c-.246-1.17-.657-2.988-1.12-4.186-.711-1.846-.973-1.82-5.383-2.763-4.42-.95-7.027-1.72-9.224-1.987-2.182-.262-3.847.748-4.51 1.997l-.871 1.467c.45-.952.732-2.12.03-3.064-1.403-1.904-3.048-1.448-4.531-1.23-1.492.222-4.981.384-4.973.384-.008-.009-2.757-1.464-.59-2.731 2.185-1.284 2.474-1.708 1.585-3.44-.873-1.748.489-.467-3.1-1.763-3.546-1.278-2.495-2.008-3.84-3.827-1.321-1.824-3.91-4.686-3.91-4.686l-1.753-.617-.71-.229c-.032-.02-8.402-3.22-10.116-2.88l-.67.075c-1.773.09-4.33-.4-6.667.054-2.656.514-4.521.881-4.521.881l-.431-.242c-1.162-.693-4.402-2.498-5.544-2.122-1.423.454-4.671-5.56-7.297-4.81l-.261.056c-2.567.622-5.443-.057-5.443-.057s2.567-2.466 1.184-3.197c-1.393-.738-1.293.1-3.941-.514-2.646-.619-6.664-1.074-3.738-1.736 2.915-.669 2.084-.989 2.084-.989-2.646.247-5.263.52-7.858.767 0 0-1.003 2.464-2.236 3.086-1.245.625-2.977-1.352-5.302-.804-2.296.548-2.106 1.673-4.25 2.194-2.106.5-2.539-1.412-2.539-1.412.003 0-.99-1.447-2.114-1.168-1.142.275-3.859.943-4.972 1.224-1.122.275-4.51 3.62-2.495 5.143 2.015 1.514 3.768 3.294 2.173 3.678-1.593.388-3.478.34-3.947-1.74-.483-2.054 1.441-4.049.069-5.209l-1.163-1.259.484-.894 1.713-1.606s.952-1.906-1.125-.88c-2.054 1.022-2.054 1.022-2.705 2.185-.663 1.162-.992 2.25-2.557 2.642-1.552.403-1.833 1.134-1.746 1.952l-.558 1.475s-1.324-2.654-1.967-1.495c-.639 1.163-3.217 2.001-2.694 3.703.52 1.696 1.273 4.188 1.273 4.188s-4.21 1.419-3.46 3.922c.752 2.5-1.231 4.708-1.231 4.708.008-.003 1.995-5.428-1.265-6.413-3.267-.981-2.986-1.728-5.373-.91-2.375.808-1.884 3.015-3.55 3.47l-1.25.65c-.641.382-1.335.569-3.79-.61-3.367-1.603-3.469-1.313-3.859-2.64l-2.645-.93c-.702.206-.896-.292-2.236.09-1.265.365-3.34.331-3.57.768.71 1.74 1.874 4.92 4.49 4.913 3.57-.004 3.308.23 4.612 1.382 1.313 1.142 1.964 1.13 3.628.67 1.654-.465 4.39-.025 4.803 1.39.42 1.399 4.089 1.597 2.836-.436-.66-1.061-1.262-1.16-1.523-1.239l-.14-.18.401-.609c1.051-1.457 1.023-2.114 1.682-2.642.673-.511 2.569-1.873 3.6-.62 1.024 1.24 1.504 2.808 1.745 3.598.23.78 2.004 1.168 2.635 2.19.64.995 3.198 10.511 3.398 11.181.193.64 1.184 3.876-.64 5.055-1.824 1.168-2.657 1.205-1.954 2.979.701 1.762 1.32 1.06.701 1.765l-.202.258-1.491 2.483c-.774.2-2.749.341-1.336 2.84 1.424 2.5.321 3.332.012 3.955-.322.619-.853 1.12.059 3.61.905 2.49 1.603 5.443 3.61 4.18 1.993-1.25 1.041 1.757 1.03 2.882l-.92 1.26c-.452.846-.674 2.573.71 7.211.313 1.054-.873 4.031 2.117 4.199 2.977.208 4.79 1.085 7.487 4.27 2.717 3.198 5.413 6.272 7.106 10.032 1.686 3.756 5.894 6.416 7.56 8.257a46.165 46.165 0 0 1 2.997 3.782c0-.003 1.512 3.149 5.613 5.135 4.111 2.003 6.747 3.333 9.052 4.098 2.277.792 5.825-.338 7.769 1.585 1.955 1.906 4.56 4.592 5.773 4.788l.762.321c.984.608 1.916 1.747 1.987 1.063.059-.95 7.717 16.995 9.851 23.178 2.026 5.956 9.676 24.77 9.704 24.85-.008-.03 5.354 9.779 3.41 8.754-1.967-1.027 1.892 3.187 2.975 5.14 1.066 1.94 1.355 1.64 2.767 5.697 1.404 4.072 3.9 10.167 4.621 12.245.693 2.044 3.758 12.166 3.77 12.186 0-.003-2.816.146.19 3.519 2.987 3.366 6.977 4.733 7.77 7.62.781 2.89-.802 6.143 1.915 8.587 2.716 2.435 3.077 6.547 4.43 6.21 1.343-.356.551 2.207 2.375 5.707 1.835 3.473 3.098 4.724 3.537 3.544.444-1.183-1.332-3.881-2.454-6.49-1.092-2.594-2.015-5.236-.802-4.769 1.214.484 3.237 3.897 3.569 4.857.341.954 1.724 3.74 3.106 6.543 1.383 2.794 2.375 6.246 2.375 6.25-.147 1.012-.298 2.037-.428 3.05 0 0-2.357-.675-1.757 1.059.595 1.708 1.074 5.623 1.074 5.623 0-.002 3.36-.731 4.602-.827 1.233-.094 2.815-1.083 3.056-.35.253.719.17 4.788-.792 5.084-.96.281-.873 4.902-.873 4.902.004 0 3.902 4.535 5.275 5.45 1.375.929 5.34 3.724 5.765 4.958l.02.082c.19.131.67.63 1.773 2.04 3.05 3.901 5.083 4.828 5.083 4.828s.782-.81 2.145.631c1.344 1.423 3.749 2.213 3.749 2.213l1.423 1.656 2.787.632 5.854 2.727c.772-.271 3.638-1.278 5.504-.885 1.833.406 4.83.398 5.993.005.954-.335 4.46-1.327 5.655-1.668l.409-.1 2.108-1.426c.58-.173 2.054-.906 3.094-.98 1.054-.076 3.22-.73 3.22-.73 1.062-.89 2.145-1.768 3.228-2.649-1.091.003-10.727 4.035-18.405-2.128-7.73-6.272-4.152-4.578-8.732-7.295-4.609-2.744-7.587-4.491-5.203-5.685 2.407-1.173 2.618.042 1.635-4.015-.961-4.044-1.754-5.086-.33-5.95 1.432-.864 2.625 1.335.79-3.956-1.834-5.284-3.376-4.694-5.573-4.174-2.184.512-4.43.295-6.566-2.739-2.123-3.03-2.606-6.215.03-7.277 2.638-1.083 2.277-3.955 1.877-5.11-.413-1.135-3.188-1.082-1.464-4.128 1.745-3.043 3.827-3.893 1.102-4.845-2.737-.964-6.296-.033-7.137-1.824-.853-1.793-7.56-4.93-2.648-5.615 4.932-.659 7.771 1.753 8.47-.534.694-2.281 1.646-2.671-.679-4.913-2.336-2.242-6.979-5.546-4.933-5.88 2.015-.343 12.77-.286 14.515-4.188 1.696-3.917 1.494-5.716.542-8.351-.955-2.64-2.015-1.83-4.682-4.253-2.654-2.436 2.525-3.49-1.464-4.635-3.97-1.14-6.916-.784-7.757-2.512l.13-.975c.721-.224 2.615.188 5.592.324 4.512.171 5.985 2.961 9.415 1.253 3.457-1.702 5.762-1.678 6.535-3.97l.05-.186c.652-2.453-.402-8.96-1.045-11.917-.65-3.03.051-6.8.051-6.8s2.217.932 2.027 3.568c-.182 2.654 1.051.364 1.393-3.816.34-4.162-.603-5.41 1.771-7.925 2.407-2.534 2.658-3.196-.42-6.254-3.045-3.049-7.627-5.763-5.945-8.24 1.686-2.455 4.263-7.096 5.625-8.667 1.334-1.563 6.026-6.712 9.402-6.447 3.338.25 10.727.127 10.758-.515.02-.642-3.22-3.038.088-3.192 3.31-.141 3.037-1.607 3.037-1.607-.298-1.9-.58-3.804-.86-5.69-.01-.002 1.494-3.684.86-5.338-.63-1.66-1.02-3.339-1.903-5.623-.882-2.274 1.373-1.97.431-5.087-.931-3.13-5.492-15.472-7.248-19.922-1.762-4.472 1.894-2.011 3.089-1.048 1.192.963-.524-.591.4-3.793.904-3.208-.21-3.964.281-5.447.512-1.506 2.035-2.452 4.47-4.743 2.427-2.276 4.473-4.967 2.517-9.843-1.954-4.859-3.48-7.226-5.963-9.894zM1315.49 1138.25c-3.2-4.012-2.798-1.833-2.798-1.833 0-.002-1.004 4.127-1.071 5.79-.092 1.658-.873 1.683-2.61 3.926-1.713 2.272-2.823 3.137-4.268 5.41-1.455 2.273-5.455 1.849-6.618 3.566-1.17 1.722-5.02 3.242-6.504 5.268-1.474 2.043-.974 2.583-1.253 6.577-.281 4.018.511 4.269 1.884 7.685 1.396 3.434-1.494 2.065-3.66 5.926-2.193 3.863-2.676 3.002-4.298 6.584-1.654 3.592.52 3.823 1.522 4.97 1.003 1.148-.261 3.274-1.023 5.996-.762 2.725-.17 2.103 2.84 5.624 3.005 3.537 5.742-.188 7.666-.25 1.906-.06 4.56-2.86 4.56-2.86a7394.113 7394.113 0 0 0 13.062-34.956l.341-.843c-.35-3.422-.5-5.383 2.145-5.468 2.658-.07.932-2.264.932-2.264 0-.003-1.01-.818-1.11-3.893-.091-3.08 2.594 1.043 3.418.471.833-.585.742-3.946.429-8.37-.31-4.396-.36-3.024-3.586-7.056zM714.512 828.342c1.876-.964 9.211-2.16 6.615-.918-2.586 1.242-4.541 2.921-3.739 2.981.803.07 4.524-1.89 7.196-2.833 2.669-.946 3.982-2.106 5.366-2.953 1.392-.838 6.845-2.494 6.845-2.494 1.744-2.138 3.478-4.289 5.243-6.454-1.773.429-3.55.875-5.322 1.302 0 0-.08-2.76-1.324-2.296-1.231.454-2.797 4.171-2.907 5.944-.14 1.777-5.704 1.728-5.704 1.716.972-.69 1.964-1.384 2.958-2.1-2.113.071-4.22.148-6.325.208l2.605-2.304-3.497 1.92.471-3.636s-2.718 2.028-4.762 2.375c-1.483.273-2.637.786-4.111 1.375-1.12 1.722-2.254 3.435-3.357 5.17l.532-.362c1.392-.798 4.058-.676 2.515.53-1.543 1.206-2.367 2.166-3.237 2.803-.904.628 2.083 1.003 3.939.026zM711.343 836.454l-3.206-3.279c-.592-.264-1.997.94-3.35 1.929a358.543 358.543 0 0 0-5.844 10.199c4.361-3.23 9.954-6.036 10.465-6.22l1.935-2.629zM783.649 947.583l.36-.14zM1392.77 984.38c-.774.458-1.887.842-3.5.921 1.363 1.736 2.726 3.475 4.079 5.211-.19-2.054-.36-4.091-.579-6.132z"/><path class="fil6" d="m745.959 1072.32-1.003-2.353c.793-.07.841-.085 1.995.748 1.153.824 1.583 1.205 2.847 1.671 1.273.475 2.605.64 2.213-.527-.389-1.152-.762-1.888-.29-3.992.472-2.11-.58-4.227-.44-5.247.14-1.023.08-2.683.08-2.683-.25-.913-.913-1.884-1.535-2.682-.762-.964-1.484-1.674-1.484-1.674 0 .009-1.431-1.063-5.544.296-4.096 1.332-4.5 2.765-6.043 2.406l-.631-.025c-1.162.167-2.335 1.264-2.145.5l.29-.725c1.113-2.276.951-.61 1.455-3.347.5-2.73-.21-1.875.58-4.7.392-1.367.633-1.893.713-2.358.079-.491-.05-.941-.42-2.228-.722-2.526-.453-3.24.099-4.683.542-1.447 2.085-4.44-1.753-3.339-3.84 1.12-9.665 2.638-8.863 5.462.812 2.818.792 4.43-.402 5.904-1.2 1.481-1.573 2.404-1.102 2.913.46.511.4 1.98-1.523.93-1.915-1.05-2.839 1.976-5.836 2.877-3.006.898-1.832-1.883-3.947-1.253-2.117.631-1.585.795-3.08-1.028-1.491-1.822-3.728-2.129-4.668-5.413-.932-3.303-1.174-8.724-1.737-11.788-.571-3.077.633-3.42.452-4.647l-.11-1.11c-.072-1.136-.092-2.533-.331-3.778-.33-1.68-.712-3.032 2.166-4.956 2.867-1.946 2.114-.602 3.208-3 1.083-2.41-2.225-1.97 2.605-3.31 4.803-1.353 4.2-1.174 5.984-1.683 1.796-.502 2.387-1.792 3.72-1.048 1.353.732 2.436 1.718 3.72.073 1.281-1.656.52-3.202.52-3.202s-2.134-1.81 3.549-2.142c5.663-.338 4.68-3.76 6.496-1.862 1.823 1.882 2.767 2.899 3.788 1.47 1.042-1.425.442-3.49 2.175-1.91 1.734 1.586 4.272 1.495 4.17 2.799-.11 1.304.09 1.415.812 3.446.752 2.035 1.395 4.245 3.208 6.124 1.835 1.876 3.469 4.757 4.513 1.096 1.023-3.67 1.38-1.846.039-6.577-1.373-4.746-3.018-8.283-3.16-8.738-.119-.449-3.327-4.316.623-9.226 3.96-4.93 4.131-6.138 6.385-7.965 2.276-1.844 2.375-.89 3.43-3.012 1.062-2.146.65-3.019 1.562-3.3.912-.286.352-1.102 1.122-1.346l1.765-1.38-.52-1.99-2.006.625 2.277-2.046-.814-1.744-1.912.26c.56-.346 2.435-1.439 2.134-2.53-.281-1.07-1.075-4.03-1.075-4.03.004 0-.94-6.646.594-1.532 1.512 5.087 1.092 7.226 2.607 3.543 1.534-3.697.67-5.114.661-5.114l1.714.123c-.008 0 2.788-4.83 2.446-6.795-.332-1.949-.721-1.47 2.444-3.054 3.189-1.589 4.461-3.41 5.734-3.85.964-.324 2.478-.848 3.17-1.078-.502.063-1.263-.29-.37-3.74 1.233-4.835 2.122-6.24 4.287-7.537 2.157-1.302 2.379-3.353 4.362-4.067l1.815-.606c1.234-.414 2.174-.815 2.015-1.505l.67-1.741 1.686-1.308c1.603-.946 2.716-2.447 3.867-3.064 1.134-.602-3.668 2.472-4.901 5.635-1.231 3.166.863 6.527 2.648 3.37 1.793-3.188 1.463-3.063 3.648-3.87 2.217-.81 3.78-2.85 5.332-3.423 1.545-.572 4.643-3.561 5.332-3.825.702-.262 2.217-1.935 3.8-4.217 1.593-2.279.463-2.97-1.273-2.123-1.726.855.21-3.258-.493-2.992-.71.28-2.684 2.537-2.573 3.79.11 1.262-1.646 1.93-2.125 2.299-.493.367-1.976 1.3-3.601 1.532-1.632.244-4.308.705-4.43-.548-.088-1.257-.571-3.308.46-4.441 1.055-1.148 1.094-.976 1.847-2.578.762-1.597 3.547-5.882.089-4.555-3.448 1.328-4.57.447-7.408 2.642-2.805 2.203-4.712 4.979-6.053 5.468-.753.278-2.335 2.79-3.77 5.018-.853 1.324-1.646 2.55-2.197 3.186l-.47.428c-1.101.583-2.033-.361-2.033-.361s.912-1.41 2.503-2.917c1.617-1.518 1.926-3.294 3.71-4.88 1.806-1.616 1.723-1.962 2.786-2.914 1.045-.95 2.696-2.524 2.708-2.524l2.125-1.937c.572-.774-.162-2.393 1.202-2.908 1.355-.526 6.254-2.79 8.379-3.447 2.13-.616 5.675-2.785 6.778-3.023 1.094-.23 4.07-1.611 4.981-1.97.895-.357 1.395-.733 3.398-3.282 2.007-2.557 1.463-3.119 6.527-5.546 5.073-2.458 6.417-3.006 6.476-5.587.06-2.6.39-3.937-.36-4.628-.762-.694-2.769 1.335-3.23-.872-.459-2.223-1.973-.788-3.818.98-1.832 1.736-3.208 3.694-4.853 4.362-1.631.661-4.33-.026-1.36-1.837 2.977-1.811 3.636-2.488 5.542-3.872 1.924-1.381 1.322-1.341 3.106-2.48 1.777-1.137 1.714-1.503-1.222-1.109-2.926.395-2.014 1.023-4.691.526-2.685-.517-5.234-.48-5.024-2.39.202-1.93.983.005 1.435-3.66.472-3.62-4.37-14.603-4.37-14.664 0 .016-2.146 5.358-5.043 8.422-2.907 3.085-5.061 4.781-5.544 6.222-.48 1.427-1.382 2.623-2.166.671-.77-1.952-1.462-1.68-2.204-1.578-.751.083-5.534 1.829-.65-3.277 4.911-5.16 2.453-3.11 2.113-4.86-.339-1.76-1.833-1.583-3.427-.933-1.595.657-2.347-.305-2.867-2.025-.511-1.71-2.467-1.984-5.194-.44-2.725 1.517-4.39 3.468-5.763 3.156-1.364-.3-5.774-.895-5.603 3.507.162 4.39-1.766 4.906-1.393 6.666.35 1.737.85 3.19-.852 3.855-1.694.655-5.976 5.189-3.018 7.121 2.938 1.924 3.149 2.046 2.927 4.337-.199 2.293-1.183 8.306-11.667 14.853 0-.004-.342 5.352.321 7.391.65 2.059.38 2.352-1.154 4.037-1.514 1.668-.86 2.947-2.617 3.563-1.753.6-2.125 1.864-2.998-.275-.86-2.143-1.392-.068-1.512-2.691-.11-2.608-1.534-1.336.512-4.362 2.043-3.014-.13-1.288 1.131-4.043 1.253-2.777 1.272-4.16.472-3.87l-7.988 2.224s-1.415-2.239-3.972-1.364c-2.543.881-5.252-3.117-8.451-2.06-3.165 1.066-5.723 2.475-5.723 2.475s1.753-3.904 1.193-6.12c-.56-2.226-4.14-.654-4.131-.662-.029.124 5.956-18.163 15.2-21.57 1.463-.512 4.529-5.024 1.19-4.03-3.335.983 2.026-2.006 3.82-2.878 1.775-.864 1.013-1.012 3.509-1.933 2.505-.939-1.063 1.695 3.167-2.036 4.251-3.766 5.084-4.303 4.862-5.306-.21-1.008-3.049 1.154-4.802.514-1.792-.643-2.597-1.003-2.597-1.003.003-.002 2.185-.818 3.589-1.13 1.395-.301 2.779-.617 3.75-1.205.983-.588.941.073 1.234-2.017.301-2.101.04-2.453 1.924-3.187 1.874-.724 2.054-1.678 4.108-1.599 2.057.085-.13-.608 2.93-1.148 3.046-.546-.182.077 3.728-2.822 3.93-2.923 5.993-3.08 5.243-5.023-.754-1.97-4.704.087-1.733-3.171 2.986-3.27 4.609-2.796 3.978-4.141-.64-1.347-3.788-1.909-4.673-1.55-.88.351-2.013-.583-3.878 1.56-1.864 2.134-1.535 4.767-2.414 6.029-.885 1.264-2.086.829-3.32 3.133-1.214 2.28-2.336 2.272-3.529 3.658-1.222 1.355-.1 1.375-1.214 1.355-1.11-.017-2.875-1.352-.681-2.444 2.187-1.065 4.61-2.02 2.538-3.943-2.067-1.923-3.93-2.806-5.255-.221-1.332 2.565-2.304 4.07-2.645 3.303-.36-.764-1.032-5.775-1.753-3.91-.714 1.885-3.45 2.931-4.882 4.846-1.424 1.892-3.8 2.784-4.762 4.262-.941 1.483-1.996 3.216-2.827 4.407-.81 1.19-.23 2.97-.893 3.22-.67.238-1.373 2.71-1.935.249-.572-2.458-1.202-2.903-2.876-2.29-1.674.588-4.009 1.42-4.841 1.697-.833.29-1.334.477-3.228 1.563-1.896 1.105-4.56 2.668-4.56 2.668s-1.627-2.992-4.784-1.944c-3.145 1.046-5.08 1.224-6.135 2.657-1.05 1.463-2.324 2.73-2.296 4.245.043 1.512.202 3.422-.78 3.083-.98-.355-.703-1.298-1.945-2.663-1.263-1.346-.653-1.758-3.307-.954-2.637.841-10.346 4.6-10.346 4.586 0-.017-1.443-.67 1.694-2.241 3.137-1.558 3.688-5.44-1.294-3.99-5 1.449-5.753 3.168-7.337 2.08l-.162-.091c-23.345 48.189-36.567 102.213-36.898 159.28l.01 2.459c1.444.883 1.405 2.5 2.174 4.438.975 2.44 1.325 5.385 2.697 6.192 1.375.798 3.1-.176 3.54 1.213.432 1.396 2.868 2.724 4.109 3.205 1.245.483-.08.358 1.035 2.208 1.111 1.861 2.082.258 4.188 2.478 2.114 2.225 7.618 3.435 8.582 6.777.982 3.35 1.221 3.603.69 5.42-.52 1.82-1.893 3.24-.04 4.164 1.875.929 7.288 4.07 8.902 3.726 1.634-.334 4.641-.603 4.641-.603s6.174 2.052 8.66 2.6c2.498.537 1.574.832 4.2.665 2.629-.14 6.286 1.199 6.667-.395.383-1.597 1.674-3.466 3.298-3.476 1.635-.008 5.715 3.495 6.635 3.89l1.114.399c1.102.388 2.777.883 4.442 1.144 1.323.206 2.625.259 3.629-.034 2.827-.85 1.843.265 4.67-.564l1.424-.015.412.446c.37.727.29 1.95 1.393 2.413 1.823.778 4.29 2.051 4.98 2.188l.223.223.531-.61zM1372.54 919.588l1.413-.111.15-.01-1.563.121zm-45.05 79.799-.38.247.38-.247zm-118.275-174.515-.11-.184.139.21-.029-.026zm-12.392 22.945.44.629.092.161-.532-.79zm195.754 134.836c-9.354-84.22-46.884-159.91-102.959-217.455-1.315.728-2.446 2.659-2.446 2.659-2.074-.391-4.19-.76-6.296-1.136l-1.5 1.964c-1.586.077-3.18.162-4.764.232 0 0 1.572-1.295 1.663-3.313.102-2.006-3.217-1.06-4.04-.744l-2.935 1.602s-2.808.273-4.422 1.237c-1.595.96-4.101 4.21-4.101 4.21-.27.972-.54 1.95-.841 2.933 0 .006-5.583.509-7.146-.861-1.554-1.347-3.49-3.708.49-3.598 3.971.109-.981-4-4.42-4.089-3.418-.093-4.271-.097-3.267 3.877.992 3.978 4.58 5.697 4.77 7.666.222 1.973-1.344.607-1.344.607 0-.002-1.623-1.989-3.628-2.062-1.975-.057-7.087 2.717-7.75 4.308-.701 1.586 3.562 4.296 2.217 4.901-1.353.586-6.257-.216-8.752-2.227-2.506-2.02-6.194.747-1.372 3.157 4.799 2.389 3.398 5.197 1.202 3.2-2.194-1.978-4.07-3.314-5.202-3.362-1.132-.04-3.479-.435-3.479-.435 0-.003.722-1.25-1.233-3.555-1.983-2.313-1.051-4.214-1.051-4.214 0-.002-3.23-.752-5.766-2.776-2.527-2.017.762-.943 1.916-.895 1.133.032 6.614 2.81 11.527 3.299 4.894.475 11.608-.603 11.287-3.541-.35-2.947-2.947-5.981-6.425-6.422-3.459-.432-5.472-.488-8.09-3.191-2.573-2.701-6.987-3.51-11.016-3.617-4.049-.117-4.982-.806-6.246-1.83-1.281-1.022-6.555.8-6.555.8s-2.666-3.036-1.503-3.008l1.15.034s-1.483-.361-2.765-1.403c-1.281-1.017-4.56-1.768-4.56-1.768l-.38 1.629-.742-3.646c-.873.636-1.756 1.27-2.668 1.91a429.81 429.81 0 0 1-2.257 2.884c-.029-1.091-.08-2.203-.108-3.29-.932.963-1.886 1.915-2.838 2.864.22-1.407.431-2.814.653-4.245 0 0-1.554-.7-4.072.215-2.495.915-3.447 2.524-3.336 3.496.131.982-1.736-.049-2.617-.083l-3.449.532s-.2.659-2.546.574c-2.345-.075-4.009-1.757-3.819-.123.21 1.617-2.657 2.154-3.498 2.446l-1.003 3.814s-4.32.798-5.283.127c-.96-.687-1.955.881-1.986 3.1-.028 2.206-1.753 2.447-2.615 2.731l-3.207 3.012c-.261 1.137-.512 2.28-.793 3.4 0 .007-.511 3.406-1.663 3.662-1.153.253-3.168 3.57-4.682 3.491-1.492-.073-2.003 3.595-3.188 3.541-1.202-.065-1.813-.103-2.706-.15l-5.424-.282-1.04 4.521c-.864.568-1.467.537-3.5 1.324-2.044.808-3.558.716-3.467 1.631.08.91 1.492 2.805 1.492 2.805 1.926.207 3.87.427 5.805.642-2.407.058-4.833.125-7.258.185.381 1.719.751 3.46 1.091 5.169 1.563-.597 3.137-1.211 4.703-1.828-1.162 1.648-2.316 3.285-3.477 4.91.932 1.465 1.891 2.907 2.835 4.351 0 0-.08 2.384 5.643 1.836 5.726-.548 6.365-2.913 7.57-3.137 1.162-.23 2.765-5.265 3.296-2.828.492 2.171.544 2.412 2.657 2.557l.913.052c3.01.165-3.74 1.606-.263 3.305 3.47 1.684 2.559 1.654 4.493 5.938 1.916 4.288 1.063 4.82 1.183 6.008.11 1.18 1.494 3.045 3.298 3.157 1.805.107 2.657-.428 2.828-1.615.19-1.182 2.575-1.034 4.68-.92 2.085.116 4.109-.347 3.43-4.268-.702-3.925-.19-7.505-.19-7.505.008 0 7.717-2.298 6.472-5.702-1.25-3.414-6.143-2.436-7.726-8.95-1.613-6.512 4.229-6.864 7.487-9.193 3.236-2.337 5.334-4.437 5.334-4.437s-3.339-1.097-1.724-2.276c1.613-1.19 1.724-2.755 3.176-2.7 1.495.058 4.29-.77 5.162-.73l1.425.132c2.054.232 5.382.832 4.639 2.011-.98 1.54-.261 2.83-1.14 2.802l-7.199 5.64s-4.46 1.67-3.168 5.444c1.295 3.77 2.656 8.131 2.656 8.122 0-.003.13 1.239 1.916 1.633 1.784.402 3.157 2.288 4.62 2.37 1.475.071 4.39.21 5.254.253l4.592-.394 2.895.14 2.077-2.062 1.132.06 2.064.094c1.073.347 2.186.71 3.258 1.07-1.072.666-2.146 1.337-3.228 2.004l-1.591 1.146c-3.57-.06-7.13-.128-10.7-.196 0-.004-7.487 3.284-2.533 6.245l2.236 1.654c2.685 2.514 2.384 4.964.52 5.112-2.316.18-3.09-1.651-3.09-1.651.004 0-3.084-4.68-6.754-3.368-3.647 1.317-3.35 1.635-.974 4.758 2.378 3.108.222 2.09 1.233 3.343 1.014 1.251-.94 2.35.654 3.612.722.56-.273 1.037-1.344 1.475-1.314.554-2.788 1.072-1.273 1.634 2.736 1.04-6.076.855-6.076.855l-2.606-2.506s-4.33.932-6.636 1.68c-2.294.753-6.957 1.95-6.957 1.95l-1.103-.35-2.295-.728-4.05-1.708c-.82.835-3.196 1.27-4.41 1.207-1.201-.085-3.077-.778-4.071-1.727-1-.943-3.317.094-2.996-2.83.33-2.927.682-2.32 2.976-3.666 2.287-1.34 2.898-1.29 1.875-2.542-1.012-1.251-3.608.082-2.896-1.955.7-2.047 2.304-4.038.79-4.133-1.502-.087-2.987.135-4.089 1.25-1.09 1.129-2.236 1.947-2.236 1.947s-3.637.085-3.529 1.282c.134 1.193-.02 2.953.392 4.151.42 1.225 3.81 4.965 3.81 4.965 0-.004-.582 3.793-1.815 3.713-1.162-.08.451.285-5.073 1.74l-.86.22c-6.638 1.63-7.178-1.045-9.042 2.626-1.864 3.68.028 4.376-4.592 4.944l-.57.083c-3.93.58-2.478 1.504-3.328 2.282-.523.487-2.188.69-3.419 1.083.281-.301.148-.683-.752-1.219-2.967-1.726-4.692.778-2.967-1.722 1.705-2.496 2.725-1.552 3.506-3.697.785-2.126 1.696-2.276-.23-3.064-1.944-.78-4.12 1.696-5.892.269-1.766-1.43.67-.62-.493-3.545-1.15-2.917.222-3.259-2.276-5.189-2.503-1.932-3.616-.915-3.616-.915.02.012 1.823-4.267-2.559-5.887-4.378-1.61-6.234-.636-6.234-.636s.243-.427 4.15-1.93c3.911-1.504 3.9-4.615 3.9-4.615s-4.58-1.398-6.487-1.522c-1.892-.129-3.418 1.753-3.707 1.074-.283-.674.309-2.418 1.914-3.188 1.593-.785 3.148-2.021 3.148-2.021-2.616-.392-5.242-.778-7.88-1.17 0 0-1.473 2.56-3.508 4.193-2.054 1.626-2.456 2.697-2.344 4.249.088 1.545 3.977 2.262 3.977 2.262s-2.986 2.219-1.783 2.302c1.213.073 5.742-.049 4.341.291-1.415.348-3.51 1.294-3.51 1.294.972.07 1.916.141 2.888.202 0-.004-3.93 2.597-2.958 2.664.974.063 5.503-.508 5.503-.508s2.066-.952 2.245 1.474c.162 2.436 1.975 4.522 1.975 4.522s3.649.915-.55 2.6c-4.21 1.67-3.971 1.687-5.184 1.606-1.221-.087 3.089 3.054 1.674 3.602-1.413.563-5.112-.568-5.33.293-.183.853 1.843 2.316 3.306 2.412 1.464.094 4.792 2.944 6.996-.389 0-.002-1.221 3.393-4.42 2.955-3.166-.43-6.263.657-6.556 4.547 0 0 2.165-.937 6.317-.652 4.129.285 3.616-.414 6.033-.238 2.426.165 2.648-.03 5.304.148 2.656.181 5.283.141 7.178.054.951-.054 2.724-.154 3.898-.471l-.472.766c.092 1.45-.06 3.757-1.642 3.65-1.605-.109-2.077 2.161-2.077 2.161s-3.768 1.19-6.143-.982c-2.376-2.191-2.668-1.62-1.887.732.785 2.37 1.796 3.013-.468 2.86-2.258-.148-4.522-.015-4.522-.015 0-.003-4.924-1.205-6.547-1.023-1.622.168-1.463 3.358-1.404 4.518.072 1.142 2.205-1.577 5.977 1.552 3.759 3.127 6.484 5.6 6.876 6.48.36.89 1.142 2.953 1.261 5.232.131 2.3 1.424 8.365-.52 8.238l-2.324.259c-1.495.311-2.858.843-2.858.843-7.968-1.367-16.01-2.737-24.18-4.14.03-.003-10.495 1.037-6.585 5.888 0-.004.141.534.32 1.486.231 1.301.532 3.384.611 6.013.142 4.574-2.906 5.827-3.918 7.202-.991 1.35-2.315 4.152-.591 4.25 1.745.11 2.284 7.279 2.284 7.267 0 0-.661.824 3.49 1.06 3.649.205 3.047.81 3.768.444l.403-.217c1.342-.778 4.752-1.153 5.882 2.026 1.134 3.18 1.495 3.757 3.518 3.59 2.046-.182.59-3.09 3.98-2.907 3.38.178 4.05-.631 7.75-.429 3.668.193 6.024.32 6.024.32s2.176-3.253 3.84-2.88c1.675.366 1.774-4.977 4.07-4.843 2.297.129-1.875-5.453 1.603-7.803 3.47-2.34 3.95-5.123 6.567-4.967 2.586.145 5.092-.832 5.092-.832.531-1.944 1.051-3.89 1.574-5.84 0-.003-1.184-4.029 2.967-3.779 4.128.239 8.44 3.325 11.227 2.933 2.795-.398 3.628-2.052 4.77-3.387l.392-.75c.38-1.29-.03-2.717 4.43-1.512 5.345 1.443 7.186 1.557 7.44 4.944.23 3.396-.17 2.237 3.398 4.966 3.558 2.723 6.155 5.087 8.95 6.082 2.808.972 5.442-.27 8.801 4.907 3.347 5.147 7.047 6.693 4.36 7.112-2.664.416.77 2.518-4.059 2.288-4.842-.247-4.81.303-7.86.156-3.065-.154-4.208 1.18-3.228 2.324.995 1.168 10.957 5.198 10.937 5.194.614-1.613 1.214-3.23 1.837-4.85 0-.003 3.287-.108 4.378-1.994 1.086-1.865 1.886-3.478 3.671-3.39 1.774.09-2.037-3.947-3.29-4.85-1.262-.888 1.212-4.079 4.432-.334 3.218 3.752 6.595 1.16.702-3-5.945-4.183-8.021-3.739-8.953-4.333-.94-.61-1.384-2.583-1.384-2.583-1.543-.546-3.086-1.102-4.62-1.64-.58-1.07-1.163-2.111-1.745-3.177.002-.002-.4-1.42-3.578-3.574-3.196-2.132-4.83-3.632-4.83-3.632s-1.895-5.202.84-5.038c1.936.103 2.126-.991 2.98-.627l1.633 1.451c2.645 2.99 4.239 4.194 5.182 4.803.952.618 2.365 3.515 4.831 4.483 2.456.984 3.157 2.413 4.382 2.757 1.213.341 3.618.463 3.618.463l.42.33c1.966 1.48 3.89 2.98 5.825 4.446l.74 6.417c.663.863 2.155 5.611 3.912 5.415l.792.012c.972.154 1.142.944 1.714 2.305.69 1.67 1.182 4.717 1.182 4.717.74 1.027 1.482 2.06 2.236 3.088 0-.003 2.154 1.46 3.315 1.777 1.194.332 4.703.75 4.703.75-.159-.916-.309-1.821-.45-2.737l1.422-.218c-.82-.944-1.665-1.882-2.486-2.828 1.296.603 2.577 1.205 3.87 1.812l1.634-1.57c-1.543-1.608-3.088-3.22-4.652-4.838a338.48 338.48 0 0 1-2.576-3.96c.002 0-.822-3.328.784-1.33 1.583 1.995 1.812 1.179 3.157-.406 1.323-1.589-1.515-1.179 1.323-1.586 2.595-.395 3.468-1.497 4.53-.656l.353.326c1.071 1.22 3.767 2.118 4.53 2.35l.208.063-.209-.062c-.15.108-.33.681-.16 2.79.211 3.552.913 5.222 1.563 6.604.654 1.383 1.963 3.875 3.38 3.936 1.435.056 2.585.392 3.226 1.76a300.11 300.11 0 0 0 1.936 3.855c1.793.235 3.608.493 5.413.738l2.545.364 1.825-2.083s2.155-1.523 4.803.718c2.625 2.248 2.355 2.5 5.671 2.345 3.32-.151 1.745-3.41 3.711-2.805 1.953.602 4.73.697 6.103.744l1.435.5.29 1.438c.1 1.6.682 7.466.48 8.772-.19 1.208-.158 2.424-1.193 3.402l-.258.246c-1.324 1.015-2.95 1.502-2.839 3.606.082 2.109.42 3.43.492 5.266.059 1.18.372 5.728 1.272 9.87.503 2.277 1.174 4.434 2.095 5.837 2.588 3.933 1.423 1.598 5.666 6.834 4.23 5.22 2.656 7.488 5.413 10.096 2.745 2.597 4.861 1.118 6.603 7.24.003-.002-.932 7.86 2.57 10.426 3.497 2.55 4.79 1.558 6.975 6.36 2.157 4.801 4.79 5.313 6.646 7.331l1.372 1.966c.293.764.21 1.483.21 2.807 0 2.26-.499 4.012 0 7.27.533 3.26.533 4.526 1.825 6.026 1.304 1.494 1.043 2.757 4.954 1.49 3.92-1.274.791-2.76 5.211-2.774 4.413-.012 9.814-2.017 9.814-2.017 0-.004.27-3.482 3.601-3.482 3.346-.01 3.576-1.761 6.133-2.988 2.536-1.257 4.332-1.24 4.582-2.982.24-1.742 1.502-3.71 2.276-3.71h.21c.61 0 1.011 0 2.816.005 2.035-.003 3.798 0 5.051-.25 1.265-.241-2.537-3.72.754-3.711 3.287.008 4.28.505 4.53-1.72.222-2.225 3.489-3.21 3.489-3.21l-.02-2.722c0-.748-1.525-3.728.71-3.717 2.268.003 1.023 0 4-2.464 2.988-2.457 2.717-5.446 1.945-6.689-.774-1.247-.774-1.006-1.785-2.003-1.012-1.003-2.296-3.256-3.046-3.264-.733-.006-3.017.235-4.282-.779-1.262-1.012-3.045-2.031-3.839-3.543l-.44-1.34c-.472-1.851-.65-4.437-.65-4.437s-5.215 6.737-7.23 7.714c-2.003.99-7.115.191-8.4.932l-.8-.043c-1.785-.645-5.175-4.33-6.75-7.103-1.88-3.322.453-3.027-2.443-5.86-2.046-1.988-4.501-4.867-5.813-7.035-.552-.912-.893-1.713-.912-2.245-.06-1.792 4.409-8.126 6.603-4.244 2.188 3.903 4.623 8.52 9.806 10.357 0 .008 2.385 4.089 6.234 4.904 3.83.795 8.3-3.695 9.863-2.163 1.546 1.52 1.376 6.07 6.175 6.85 4.793.797 8.582 2.587 11.088 2.601.9.009 1.743-.076 2.788-.19 1.843-.193 4.318-.42 8.93-.222 7.226.29 7.677-2.21 9.211.548 1.496 2.735.774 4.974 5.233 4.993l1.485.301c2.074 1.023 1.294 4.198 6.796 3.519z"/><path class="fil6" d="M1141.91 892.352c2.336.14 2.678-1.528 2.567-3.424-.132-1.903-3.93-3.174-4.291-1.716 0 0-.611 5.012 1.724 5.14zM663.239 1048.17c-2.196-.537-2.537-4.135-3.79-6.98-1.253-2.85-3.64-2.693-4.782-5.094-.43-.94-.841-1.747-1.242-2.432.108 2.609.25 5.208.4 7.796l1.094.816c1.092 1.73 1.092 1.725 1.373 2.666.29.926.662 3.364.662 3.364 2.024.879 4.03 1.75 6.024 2.631 0 .009 3.418 4.688 3.648 1.777.221-2.919-1.182-3.992-3.387-4.544zM771.651 805.397c-1.455.943.409 5.066 1.17 4.754.762-.315 3.048-1.253 5.354-2.195 2.307-.946 4.611-1.888 7.198-2.969 2.577-1.073 4.71-1.599 6.545-2.363 1.815-.764 3.207-2.405 7.068-4.721 3.848-2.323 3.586-5.73 3.578-5.73l-7.456 2.798c-.785.324-7.47 4.197-15.188 7.374-7.717 3.182 1.785-3.893 1.805-3.901l9.271-4.578 5.955-3.212c3.198-1.233 6.395-2.474 9.642-3.727-.009-.002 3.478-1.481 2.526-2.154-.952-.648-2.125-2.663.564-3.819 2.704-1.144 5.33-2.987 5.33-2.987l.835-2.153 9.13-5.342c.782-.7-3.308 1.409-4.68 1.995-1.372.58.47-4.926 2.024-6.323 1.542-1.404 10.817-4.606 13.363-5.677 2.526-1.086 4.49-1.92 6.435-3.095 1.924-1.19 3.689-5.967 5.965-6.942 2.296-.954 6.393-4.145 8.65-5.452 2.248-1.308 8.13-5.217 8.13-5.217 1.803-1.112 3.6-2.209 5.393-3.325 0 .012-3.3-1.967-7.377-.665-4.08 1.307-4.902 2.023-8.082 3.333-3.157 1.308-4.01 1.66-8.007 3.33-4 1.674-5.987 2.501-10.507 4.4-4.53 1.903-3.69 1.557-10.697 4.503-6.963 2.955-6.385 3.074-13.3 7.899-6.876 4.796-10.013 4.998-13.012 6.26-2.978 1.267-3.93 4.305-3.93 4.293.151 1.055.322 2.12.492 3.149l.913 2.203s-2.158.914-3.11.215c-.971-.713-3.425-.04-3.425-.04 0-.002-2.015 1.594-3.09 2.032-1.051.443-4.77 2.007-6.345 2.662-1.593.657-3.299 5.422-3.299 5.413.324 1.215.623 2.433.924 3.626 0 .009 2.815 1.739 3.858 1.294 1.043-.427 3.669-1.524 5.195-2.52 1.522-1.001 4.901-2.772 5.702-3.124l3.45.356-.792 2.133-2.286-.108s-2.636 1.1-3.69 1.543c-1.06.435-2.297 3.129-3.86 3.771-1.562.647-3.136 1.304-4.18 1.736-1.03.427-1.843 2.188-3.648 2.933-1.823.747-5.674.908-7.648.65-1.975-.27-2.967 4.777-2.967 4.757 1.704-.679 3.406-1.378 5.122-2.075 0 .012.469 4.052-1.011 5.002zM1139.92 897.905c.138 2.23.27 4.475.409 6.711l2.338.125.83-1.634 2.086-.302.492-7.069-1.757-1.98-2.094.082-1.813.733-1.804.955 1.313 2.379zM702.364 858.038l.952 2.535s1.813-.841 6.504-2.294c4.712-1.46 8.59-5.262 9.553-6.555.952-1.273 1.173.58 5.314.78 4.148.18 3.066-1.039 7.107-2.442 4.028-1.407-.322-2.444.38-2.683.713-.253 4.521-1.606 6.163-3.49 1.637-1.877-6.555.742-6.535-3.54.032-4.242 4.14-11.443 4.16-11.451.963-.369 1.165-1.787 1.165-1.787-1.784.653-3.569 1.316-5.345 1.952.242 1.478.511 2.946.753 4.421 0-.002-1.142-1.589-3.228-1.522-2.085.076-5.032 4.131-4.22 7.458l.08.285c-.36-.924-1.113-2.291-2.125-1.214-1.112 1.154.11-2.703-.54-1.145-.651 1.549-3.2 1.765-5.425 1.187-2.233-.582-2.165.731-5.353 1.441-3.197.708-3.76 1.555-6.866 2.535-3.108.98-3.75 1.492-4.622 4.038-.85 2.532 3.529 2.478 1.145 3.21-2.378.714-4.052 2.177-3.01 2.177 1.044.052 11.73-1.335 11.73-1.358 0 0-3.088.978-6.637 2.07-3.566 1.09-7.607 2.272-7.267 5.32.342 3.058 6.163.084 6.167.072zM1062.35 838.315c3.038 1.091 2.986 0 5.884-.878 2.916-.9 2.666-.9 6.806-1.273 4.131-.366 1.114-6.245 2.025-7.076 0-.002 2.004 1.257-.531-.894-2.557-2.17-4.031-2.694 1.794-2.282 5.817.395.09-2.415-1.413-3.387-1.514-.986-2.196-.384-6.086-.663-3.907-.275-2.225 3.788-2.225 3.788s-1.411.79-4.2-.938c-2.785-1.736-3.458-.465-3.788 3.01-.332 3.478.85 2.236 3.078 2.403 2.236.157-.162 1.513-2.146 1.81-1.955.302-3.097 2.18-3.028 3.718.042 1.526.812 1.585 3.83 2.662zM1138.24 720.27c2.637.028 3.59-2.725 6.015-2.715 2.416.033.131 2.79.131 2.778-6.615 1.43-6.908.913-1.844 4.484 5.052 3.564 3.947.069 7.207 1.617 3.267 1.549 1.542.047 3.62-4.232 2.074-4.273 1.122-3.267 4.758-3.741 3.66-.478 3.248 3.082 4.874 3.87 0 0 3.719 1.577 7.206 1.625 3.51.037 4.18-1.49 2.637-1.503-1.524-.02-4.362-.057-7.388-3.157-3.027-3.11-11.317-4.708-11.317-4.708 0-.004 2.406.026 3.56.54 1.162.52 6.043 1.07 9.101 1.105 3.069.008 3.68-.242 7.627-1.773 3.961-1.53 1.716-3.626 1.716-3.626s-6.777-.026-10.056-.034c-3.276-.018-6.104-.034-10.264-.046-4.16-.014-5.302 1.265-11.418 1.233-6.114-.033-6.998-.033-10.064-.053-3.056-.009-2.997 2.256-2.625 5.262.38 3 3.887 3.046 6.524 3.074z"/><path d="M1024 1394.89h-.021c-204.795-.002-370.868-166.047-370.868-370.899.002-204.848 166.073-370.889 370.868-370.889h.021v741.788z" style="fill:#038a7e"/><path class="fil8" d="M1024 963.987v75.898a4.684 4.684 0 0 0-.693-.474c-1.504-.842-2.996-3.138-2.996-3.138l-.654-.22c-1.122-.432-3.215-1.488-2.375-3.23 0 0-3.398.912-4.922-.825l-1.324-1.49-.19-.232s-3.066-1.429-2.676-3.474c.38-2.034-.39.596.38-2.034.754-2.627.754-.885.754-2.627v-3.489c0-1.463.77-3.197.77-3.197l3.43-4.933c.518-.602.693-.786.74-1.875.02-.51.02-1.179.02-2.189 0-3.196.754-4.057.754-6.654 0-2.611-.382-1.455-.382-4.063 0-2.61 1.896-5.783 0-6.387-1.895-.606-1.522-.311-2.276-1.782-.762-1.458-1.894-1.48-1.514-3.51.372-2.025 0-.883 1.504-3.165 1.526-2.294 5.293-5.692 5.293-5.688 0 0 .742-2.872 2.236-4.275 1.492-1.409 1.864-1.977 2.606-3.108.393-.597.58-2.15 1.515-3.839zM761.976 822.699s1.995-.788 3.177-1.6c1.185-.79 4.032-5.686 4.73-6.317l-8.037.463c-1.083 1.459-3.989 5.682-4.85 6.692-.852 1.023-.504 5.266-1.504 5.65-.983.383-2.958 4.816-4.29 5.969-1.332 1.18-2.999 4.43-2.999 4.422l1.645 2.656c1.043-.392 2.095-.787 3.147-1.2.772-1.263 1.554-2.527 2.327-3.815l3.919-1.503c-.21-1.02-.422-2.052-.623-3.075.082-1.25.182-2.51.27-3.773 1.026-1.515 2.057-3.035 3.088-4.569zM817.903 826.986c1.312-.56 4.96.78 5.802 2.322.832 1.55 1.194 2.017 3.017-.66 1.856-2.699.25-3.608 4.783-5.876 4.552-2.27 6.223-4.595.94-4.888-5.282-.337-4.51-.994-8.3-1.326-3.788-.332-6.713 2.56-7.285.823-.582-1.714 5.873-4.148 5.882-4.148.004 0 4.493-4.242.954-3.054-3.569 1.193-10.297 1.744-7.089.384 3.188-1.364-2.546-1.592-2.535-1.598l-1.262-2.5s-5.035.454-4.071-.646c.944-1.083-4.28-.224-3.288-.988 1.022-.774 1.764-3.137.972-2.81-.79.341-6.016-.55-9.371 1.204-3.34 1.757-.825 5.157.48 4.615 1.313-.557 3.41.261 3.41.261l-3.6 1.853-6.115 3.23a240.91 240.91 0 0 0 1.732-2.755c.574-1.043 1.146-2.06 1.706-3.098l-.382-2.253c-1.633.808-3.267 1.597-4.881 2.39-1.363.673-2.717 1.355-4.07 2.032l-2.596 2.443a569.994 569.994 0 0 1 1.685-4.475c-.964 1.315-1.926 2.628-2.878 3.935-.912 1.1.76 10.22-.259 10.602-1.003.417-3.53-2.932-3.53-2.932s1.683-2.697 2.015-3.863c.33-1.155-3.239-2.773-3.239-2.778-1.793 2.212-3.557 4.41-5.311 6.584-1.023 1.202-2.057 2.412-3.069 3.6.151 1.272.31 2.56.471 3.824l4.562-1.477c-1.492 1.142-2.979 2.298-4.45 3.43l.682 2.048c1.233-.492 2.475-.977 3.728-1.485 0-.003 5.714-.978 10.005-2.732 4.299-1.753 8.388-3.46 8.388-3.46a801.569 801.569 0 0 0 1.926-3.117c-.01.008 5.784-.085 6.746 2.154.943 2.232 4.783 1.923 5.143 4.043.37 2.126-.932 4.267-3.187 5.555-2.266 1.262-3.248 6.45-3.248 6.441 0-.002.07 1.874-1.714 2.61-1.785.741-5.333.624-6.476 1.71-1.153 1.109-3.49 2.991-3.477 2.991-.012.026-3.832 6.545-1.094 5.448 2.727-1.12 1.815-1.68 3.557-2.384 1.725-.695 8.66-5.72 10.096-1.037 1.415 4.683 5.012 3.47 6.606 3.129 1.583-.356 6.424.386 6.263-.471-.159-.857 3.842-1.894-.199-4.198-4.049-2.33-2.236-4.646.04-2.811 2.287 1.825 4.933 2.555 5.996-.969 1.063-3.549 4.54-4.723.701-7.177-3.8-2.469-4.06-3.972-4.06-3.953-.01 0 1.423-3.174 2.748-3.742zM834.832 887.545c-4.44 2.068-4.43 2.06-4.43 2.06l.37.409s-3.276 3.276-4.339 6.175c-1.055 2.887-2.256 4.999-3.95 6.2-1.674 1.225-2.669 7.808-2.669 7.794.012-.002-.027.014 6.147-2.384 6.186-2.418 8.78-5.076 8.773-5.076l1.05 2.025c.994.153 2.007.3 3.007.443.002-.003 1.866-.731 2.767-1.904.904-1.177.821-2.783.821-2.783l-.82-1.033c-.22-.929-.421-1.838-.631-2.763l-.362-2.889s-3.287-.321-4.972 1.17c-1.693 1.509-2.697.807-2.697.807.463-.91.924-1.83 1.392-2.755.003 0-2.974.3-4.037.954 1.515-1.37 8.41-8.252 4.58-6.45zM755.912 800.376c1.162-.58 2.316-1.18 3.487-1.748l1.085 1.35 2.615-.7c-.151-1.252-.29-2.514-.452-3.773-.96-.216-1.913-.429-2.876-.65-.931.378-1.876.75-2.808 1.13-1.55.984-3.085 1.95-4.63 2.922 1.002-.043 1.984-.071 2.977-.096l.602 1.565zM754.267 815.117c1.495-.58 3.44-.307 3.68-1.79.25-1.478.431-3.3.431-3.3.16-.993.32-1.992.481-3.005-1.412.206-2.807.417-4.22.613l.211 2.378c0 .004-.532 4.052-1.042 2.859-.52-1.201-1.245-4.77-1.856-3.822-.63.953-2.585 4.507-2.575 4.496.471.991.94 1.957 1.405 2.932 0 0 2.003-.775 3.485-1.361z"/><path class="fil8" d="M739.843 832.163c1.111.256 2.213.513 3.337.774.002-.003-.781 3.6 2.116 2.508 2.907-1.083 2.506-2.926 2.506-2.926 0 .011 3.538-1.992 4.7-2.78 1.166-.766-.54-5.146-.55-5.159l2.215-.858c-.008 0 2.325-4.3 1.504-5.702-.833-1.4-3.458 2.732-4.7 3.199-1.233.48-3.7 1.408-3.7 1.408l-1.874 2.41c-.08 1.282-.152 2.55-.23 3.796l-2.468-.406c-2.463-.437-2.856 3.736-2.856 3.736zM986.902 695.41c-5.785 1.714-10.297 3.808-11.67 4.47-1.373.64-7.038 2.697-7.67 2.913-.59.204 3.01-2.35.042-2.987l-.771-.176.059-.086-1.765-1.745-2.184-.115-2.154-1.18-3.402 1.45-2.995.158-3.259-.13-2.586 1.946-.599-1.004-2.037.802c-1.04.202-2.106.384-3.15.582l-1.883 1.123-.039-.228-1.762.49-2.507 1.355c-.982.432-1.986.858-2.957 1.285l-.754-.606c-.9.16-1.823.313-2.736.48a215.24 215.24 0 0 0-2.747 2.094l-1.682 1.216-1.154-.459c-1.203.44-2.416.89-3.629 1.323l-1.064 1.782-.82-.46c-.972.318-1.946.636-2.918.948l-1.504 1.819-2.213 2.213-1.534-.05c-1.063.483-2.126.97-3.188 1.457l-1.194.072a563.776 563.776 0 0 1-2.316 3.174l-1.264.363-1.663 1.407-2.105.684-.591-.516-2.245 2.133c-1.073.679-2.144 1.362-3.207 2.053-.663 1.148-1.314 2.323-1.968 3.489l-3.256 1.8s2.547-2.29-3.45.104c-5.963 2.411-9.853 3.998-11.496 4.653-1.634.677-6.325 4.422-6.646 5.316-.31.92-4.553 2.933-4.54 2.933-.05 0-16.653 11.085-13.124 10.38 3.499-.699 5.255 1.373.652 3.311-4.61 1.955-8.57 6.94-14.463 9.446-5.894 2.508-9.075 7.674-3.819 5.424 5.274-2.243 11.655-4.464 11.667-4.464-.048.008-14.054 9.763-7.971 8.643 6.067-1.097 5.004.089 9.534-1.844 4.552-1.947 5.253-5.964 10.615-5.527 5.345.432 6.305-.466 6.96 2.676.65 3.132 3.355 5.576 1.661 8.679-1.693 3.103-5.433 5.203-5.433 5.203.012.002-.54 3.555 3.196 1.458 3.763-2.091 5.966-6.112 6.397-4.648.443 1.471 3.499 4.608 3.499 4.608.003 0-4.15-.315-6.365.642-2.226.95-4.871 3.271-2.256 3.543 2.608.279 6.958-.914 7.57-1.174.61-.264-.542 3.482-2.127 4.397-1.594.917-6.888 5.52-6.888 5.52 0-.005-4.711 5.286-3.437 10.393 1.256 5.074 2.077 6.043 2.758 8.852.691 2.815.23 8.7 2.324 9.526 2.098.833 2.428 2.622 5.617 2.11 3.176-.515 5.201-1.61 5.801-1.88.623-.26 1.292.964 2.557 1.714 1.265.728 2.486.2 6.024-1.332.952-1.275 1.916-2.544 2.876-3.828 1.146-2.208 2.93-7.108 2.93-7.108s1.883-3.198 1.15-4.648c-.719-1.432-.028 1.112 3.69-3.359 3.72-4.47 4.5-5.256 4.119-7.288-.398-2.046-1.464-2.927-.612-3.287.845-.37 1.896-3.286 5.303-4.742 3.42-1.487 2.126 1.524 8.712-4.218 6.607-5.726 6.575-5.935 9.684-9.278 3.098-3.345.07-3.177 4.481-5.944 4.422-2.773 4.049-2.175 8.661-5.223 4.612-3.063 6.286-5.319 8.28-6.145 1.976-.826 8.88-6.597 15.166-10.687 6.305-4.104 5.072-3.152 3.96-2.7-1.112.437-10.325 2.359-12.99 3.23-2.677.853 1.823-3.674 1.812-3.662.003 0 3.129-3.06 3.68-1.702.543 1.352 1.764 2.421 5.734.835 3.97-1.605 6.464-3.245 3.688-4.592-2.736-1.37-2.515-1.464-4.382-2.293-1.863-.838-2.252-.465-4.881-.554-2.606-.099-5.302-.63-4.22-1.043 1.094-.445 3.538-2.091 7.007-3.427a520.65 520.65 0 0 1 6.274-2.42c1.737-.669 4.413-.364 4.323-1.672-.06-.846-1.443-1.002-2.646-.914 1.594-.452 3.969-1.352 5.27-2.75 2.238-2.402 4.271-4.475 1.275-3.375-2.995 1.117 2.065-2.986 2.056-2.979 0-.003 1.611-3.698-2.84-2.095-4.448 1.629-8.188.279-3.127-1.565 5.084-1.827 8.451-3.888 7.3-3.934-1.163-.03-7.57-.252-7.57-.258-.008.009-.46-1.233 6.746-5.952 7.158-4.652 7.97-8.164 9.795-8.749 1.834-.577 3.236-1.887 5.794-2.87 2.546-.986 3.727-2.84 3.727-2.84.002.01-.25-1.659-6.001.035zM979.091 759.674c-2.696 2.174-2.705 1.316-5.224 2.339-2.515 1.03-3.647 1.491-5.032 2.935-1.353 1.435-3.379 2.483-5.19 3.242-1.825.746-1.063-1.106-2.967-1.623-1.904-.548-8.983 5.914-7.78 6.743 1.213.804 3.798-1.818 6.987-3.14 3.188-1.318-.14 1.373-.822 1.656l-4.651 4.372c1.916-.37 3.848-.75 5.794-1.128-.802 1.13-1.594 2.26-2.395 3.408 0-.002 4.53-2.114 5.682-1.73 1.144.392 4.673.012 6.778-.87 2.094-.883 4.43-1.845 4.418-2.706-.008-.873 4.924-4.42 8.784-6.426 3.85-2.025 6.345-7.118 6.345-7.104-1.464-2.634-8.07-2.133-10.727.032zM760.965 813.526s2.947-1.532 4.018-1.603c1.074-.097 3.219-1.645 3.219-1.645 0-.004.08-3.867-1.181-3.36-1.274.51-3.93 2.275-3.93 2.275-.703 1.451-1.424 2.894-2.126 4.333zM775.53 1031.89s-5.435-2.401-12.38-4.075c-6.956-1.682-6.98-.295-8.833-1.14-1.843-.829-1.684-1.103-4.368-.099-2.658.998-4.902 3.455-5.656 4.808-.741 1.343-.289 2.117-.289 2.117.621-.182 4.779-3.856 6.115-4.018 1.324-.154 1.17 1.704 2.855 1.219 1.685-.48 4.14-.714 5.282.094 1.166.807 3.13-1.12 3.13-1.12l1.434 2.57 2.384.24-.08 2.086c-.59.383 7.35-.224 10.406-2.682zM964.798 1106.57c-2.478-2.656.67-5.265-3.37-4.845-3.999.424-2.495 2.114-8.53.085-5.984-2.028-8.792-3.737-10.376-4.372-1.593-.643-7.006-3.612-9.291-3.539-2.308.091-3.29.204-5.715.52-2.426.295-4.29 1.325-6.265.768-1.954-.552-6.064-2.771-9.303 1.368l-1.113 1.538c-.248-1.17-.66-2.988-1.122-4.186-.711-1.846-.974-1.82-5.384-2.763-4.42-.95-7.026-1.72-9.223-1.987-2.182-.262-3.847.748-4.51 1.997l-.871 1.467c.45-.952.733-2.12.03-3.064-1.403-1.904-3.05-1.448-4.531-1.23-1.491.222-4.981.384-4.973.384-.008-.009-2.757-1.463-.592-2.731 2.187-1.284 2.476-1.708 1.587-3.442-.873-1.746.487-.465-3.1-1.76-3.546-1.279-2.495-2.009-3.84-3.828-1.321-1.824-3.91-4.685-3.91-4.685l-1.752-.618-.71-.229c-.033-.02-8.403-3.22-10.117-2.88l-.67.075c-1.773.09-4.33-.4-6.667.054-2.656.514-4.521.881-4.521.881l-.431-.242c-1.162-.693-4.402-2.498-5.544-2.122-1.423.453-4.671-5.56-7.297-4.81l-.262.056c-2.566.622-5.44-.057-5.44-.057s2.565-2.466 1.182-3.197c-1.393-.738-1.293.1-3.943-.514-2.644-.619-6.662-1.074-3.736-1.736 2.915-.669 2.083-.99 2.083-.99-2.646.248-5.263.521-7.857.768 0 0-1.003 2.464-2.236 3.086-1.243.625-2.977-1.352-5.302-.804-2.296.549-2.106 1.673-4.25 2.193-2.106.5-2.539-1.411-2.539-1.411.004 0-.992-1.447-2.114-1.168-1.142.275-3.857.942-4.972 1.224-1.122.277-4.51 3.62-2.495 5.143 2.014 1.514 3.768 3.294 2.173 3.678-1.594.388-3.478.34-3.947-1.74-.483-2.054 1.441-4.049.07-5.209l-1.164-1.258.484-.896 1.713-1.605s.952-1.906-1.125-.88c-2.054 1.022-2.054 1.022-2.705 2.185-.663 1.162-.992 2.25-2.558 2.642-1.551.403-1.832 1.134-1.745 1.953l-.558 1.474s-1.324-2.653-1.967-1.495c-.639 1.163-3.217 2.001-2.694 3.703.52 1.696 1.273 4.188 1.273 4.188s-4.21 1.419-3.46 3.922c.752 2.5-1.231 4.708-1.231 4.708.008-.003 1.994-5.428-1.265-6.413-3.267-.98-2.987-1.728-5.373-.91-2.375.808-1.884 3.015-3.55 3.47l-1.25.65c-.641.382-1.335.569-3.79-.61-3.367-1.603-3.47-1.313-3.858-2.64l-2.645-.93c-.703.206-.897-.292-2.237.09-1.264.365-3.34.331-3.57.77.711 1.738 1.872 4.919 4.49 4.911 3.57-.005 3.308.23 4.612 1.381 1.312 1.144 1.964 1.132 3.628.671 1.654-.465 4.39-.026 4.803 1.39.42 1.399 4.089 1.596 2.836-.436-.66-1.063-1.262-1.16-1.523-1.237l-.14-.182.401-.609c1.051-1.457 1.023-2.114 1.682-2.642.673-.511 2.569-1.873 3.601-.62 1.023 1.24 1.503 2.808 1.744 3.598.23.78 2.003 1.167 2.635 2.19.642.995 3.198 10.511 3.398 11.181.192.64 1.184 3.877-.64 5.056-1.824 1.167-2.657 1.205-1.954 2.978.7 1.761 1.32 1.06.7 1.763l-.2.26-1.492 2.483c-.773.2-2.748.341-1.336 2.84 1.424 2.5.321 3.331.012 3.955-.322.619-.853 1.118.059 3.612.905 2.488 1.603 5.44 3.608 4.178 1.995-1.25 1.043 1.757 1.032 2.882l-.92 1.26c-.452.846-.674 2.574.71 7.21.313 1.055-.873 4.032 2.117 4.201 2.977.207 4.79 1.084 7.488 4.271 2.716 3.195 5.413 6.27 7.105 10.029 1.686 3.757 5.895 6.417 7.56 8.258a46.165 46.165 0 0 1 2.997 3.782c0-.003 1.512 3.149 5.611 5.134 4.113 2.004 6.75 3.334 9.055 4.099 2.276.792 5.825-.34 7.768 1.585 1.956 1.907 4.56 4.592 5.774 4.788l.761.321c.984.608 1.916 1.747 1.987 1.062.06-.949 7.717 16.996 9.851 23.179 2.026 5.955 9.676 24.77 9.704 24.85-.008-.03 5.353 9.779 3.41 8.754-1.967-1.027 1.892 3.187 2.975 5.14 1.066 1.94 1.355 1.64 2.767 5.697 1.404 4.072 3.9 10.167 4.621 12.245.693 2.046 3.76 12.166 3.77 12.186 0-.002-2.816.145.19 3.518 2.987 3.367 6.976 4.735 7.77 7.621.78 2.89-.802 6.143 1.915 8.587 2.716 2.435 3.077 6.547 4.43 6.21 1.343-.356.551 2.207 2.376 5.709 1.834 3.472 3.097 4.722 3.536 3.542.444-1.183-1.332-3.881-2.454-6.49-1.092-2.594-2.014-5.236-.802-4.769 1.214.484 3.236 3.897 3.569 4.857.341.954 1.724 3.74 3.106 6.545 1.383 2.792 2.375 6.245 2.375 6.248-.147 1.012-.297 2.037-.428 3.05 0 0-2.355-.674-1.757 1.059.595 1.708 1.074 5.623 1.074 5.623 0-.002 3.36-.73 4.602-.827 1.233-.094 2.815-1.083 3.056-.35.253.719.172 4.788-.792 5.084-.96.281-.872 4.902-.872 4.902.003 0 3.901 4.535 5.273 5.45 1.376.929 5.342 3.726 5.766 4.958l.02.082c.189.131.67.63 1.773 2.04 3.05 3.901 5.083 4.828 5.083 4.828s.782-.809 2.145.631c1.344 1.423 3.749 2.213 3.749 2.213l1.423 1.657 2.787.63 5.854 2.728c.772-.272 3.638-1.278 5.504-.885 1.833.406 4.83.396 5.993.004.955-.334 4.46-1.326 5.655-1.667l.409-.1 2.108-1.425c.58-.175 2.054-.907 3.094-.982 1.054-.077 3.22-.73 3.22-.73 1.062-.889 2.145-1.767 3.227-2.648-1.09.004-10.726 4.035-18.404-2.128-7.728-6.272-4.15-4.578-8.732-7.293-4.609-2.746-7.587-4.493-5.203-5.687 2.407-1.173 2.616.042 1.634-4.015-.96-4.044-1.753-5.086-.33-5.95 1.434-.864 2.626 1.335.791-3.956-1.834-5.284-3.376-4.694-5.573-4.174-2.184.512-4.43.295-6.566-2.739-2.122-3.03-2.607-6.215.03-7.277 2.638-1.083 2.277-3.955 1.876-5.11-.412-1.136-3.187-1.082-1.463-4.128 1.745-3.043 3.827-3.893 1.103-4.845-2.736-.963-6.297-.034-7.138-1.825-.853-1.792-7.558-4.929-2.648-5.614 4.932-.66 7.771 1.754 8.47-.534.694-2.281 1.645-2.671-.679-4.913-2.336-2.242-6.979-5.546-4.933-5.88 2.015-.343 12.77-.286 14.514-4.188 1.696-3.919 1.495-5.716.543-8.351-.955-2.64-2.015-1.83-4.682-4.253-2.654-2.436 2.526-3.49-1.465-4.635-3.968-1.139-6.916-.784-7.756-2.512l.13-.975c.723-.224 2.615.188 5.592.324 4.512.171 5.985 2.961 9.415 1.254 3.457-1.703 5.761-1.68 6.535-3.97l.05-.187c.651-2.453-.402-8.96-1.045-11.917-.65-3.03.051-6.801.051-6.801s2.216.933 2.027 3.569c-.182 2.654 1.05.364 1.392-3.816.34-4.164-.603-5.41 1.772-7.925 2.407-2.535 2.658-3.196-.42-6.254-3.045-3.049-7.627-5.763-5.945-8.24 1.686-2.455 4.264-7.096 5.625-8.667 1.334-1.563 6.026-6.712 9.402-6.447 3.338.25 10.726.127 10.758-.515.02-.642-3.22-3.038.088-3.19 3.311-.143 3.037-1.609 3.037-1.609-.298-1.902-.58-3.804-.861-5.69-.008-.002 1.495-3.684.861-5.338-.63-1.66-1.02-3.339-1.904-5.623-.881-2.274 1.374-1.97.432-5.087-.932-3.131-5.492-15.472-7.25-19.922-1.76-4.472 1.896-2.011 3.09-1.049 1.193.964-.523-.59.4-3.792.904-3.208-.21-3.964.282-5.447.511-1.506 2.035-2.454 4.47-4.744 2.428-2.275 4.472-4.966 2.517-9.842-1.954-4.859-3.48-7.226-5.963-9.894zM714.512 828.342c1.876-.964 9.211-2.16 6.614-.919-2.585 1.243-4.54 2.922-3.74 2.982.805.071 4.526-1.89 7.198-2.833 2.67-.946 3.982-2.106 5.366-2.953 1.393-.838 6.845-2.494 6.845-2.494 1.744-2.138 3.478-4.289 5.241-6.454-1.771.429-3.548.875-5.322 1.302 0 0-.079-2.76-1.324-2.296-1.23.454-2.794 4.171-2.905 5.944-.14 1.777-5.704 1.727-5.704 1.716.972-.69 1.964-1.384 2.958-2.1-2.113.071-4.22.15-6.325.208l2.605-2.304-3.497 1.92.471-3.636s-2.72 2.028-4.762 2.375c-1.483.273-2.637.786-4.111 1.375-1.12 1.722-2.254 3.435-3.357 5.17l.532-.362c1.392-.798 4.058-.676 2.514.53-1.542 1.206-2.366 2.166-3.236 2.803-.904.627 2.083 1.003 3.939.026zM711.344 836.455l-3.206-3.28c-.594-.264-1.998.94-3.35 1.929a358.543 358.543 0 0 0-5.846 10.199c4.362-3.23 9.954-6.036 10.466-6.22l1.936-2.628zM783.649 947.583l.36-.14z"/><path class="fil8" d="m745.959 1072.32-1.003-2.353c.792-.07.841-.085 1.994.748 1.154.823 1.584 1.205 2.848 1.671 1.273.475 2.605.64 2.213-.527-.389-1.154-.762-1.888-.29-3.99.473-2.112-.58-4.23-.44-5.25.14-1.022.08-2.682.08-2.682-.251-.913-.913-1.884-1.535-2.683-.762-.963-1.484-1.673-1.484-1.673 0 .009-1.431-1.063-5.544.296-4.097 1.332-4.5 2.763-6.043 2.406l-.631-.025c-1.162.166-2.335 1.264-2.145.5l.29-.725c1.113-2.277.951-.61 1.455-3.348.5-2.73-.21-1.874.58-4.698.392-1.368.633-1.894.713-2.36.079-.492-.052-.94-.42-2.228-.722-2.525-.453-3.238.099-4.682.543-1.447 2.084-4.44-1.753-3.339-3.839 1.12-9.664 2.638-8.863 5.462.812 2.818.792 4.429-.4 5.904-1.203 1.481-1.575 2.405-1.104 2.914.46.51.4 1.98-1.523.928-1.914-1.049-2.839 1.977-5.836 2.877-3.007.9-1.833-1.882-3.947-1.252-2.117.631-1.585.795-3.08-1.028-1.491-1.822-3.728-2.129-4.668-5.413-.932-3.303-1.174-8.724-1.737-11.787-.571-3.078.633-3.421.452-4.648l-.11-1.11c-.072-1.136-.092-2.534-.331-3.778-.33-1.68-.712-3.032 2.165-4.956 2.869-1.946 2.115-.602 3.209-3 1.083-2.41-2.225-1.969 2.605-3.31 4.803-1.353 4.2-1.173 5.984-1.682 1.796-.503 2.388-1.794 3.72-1.05 1.353.734 2.436 1.72 3.72.074 1.281-1.656.52-3.202.52-3.202s-2.135-1.81 3.549-2.142c5.663-.34 4.68-3.76 6.496-1.862 1.825 1.882 2.767 2.899 3.786 1.47 1.044-1.425.444-3.49 2.178-1.91 1.733 1.585 4.271 1.495 4.168 2.799-.107 1.304.091 1.415.813 3.446.754 2.035 1.395 4.246 3.208 6.124 1.835 1.875 3.469 4.757 4.512 1.096 1.024-3.67 1.382-1.846.04-6.577-1.373-4.746-3.017-8.283-3.16-8.738-.119-.449-3.327-4.316.623-9.226 3.96-4.93 4.131-6.138 6.385-7.965 2.276-1.844 2.375-.89 3.429-3.012 1.063-2.145.65-3.019 1.563-3.3.912-.286.352-1.102 1.122-1.346l1.765-1.38-.52-1.99-2.006.625 2.277-2.046-.814-1.744-1.912.26c.56-.346 2.435-1.439 2.134-2.53-.281-1.07-1.075-4.03-1.075-4.03.004 0-.94-6.646.594-1.532 1.512 5.087 1.092 7.227 2.606 3.543 1.535-3.697.67-5.114.662-5.114l1.713.123c-.007 0 2.789-4.83 2.448-6.795-.334-1.949-.722-1.47 2.443-3.054 3.189-1.589 4.461-3.41 5.734-3.85.964-.324 2.478-.848 3.17-1.078-.502.063-1.263-.29-.37-3.74 1.233-4.835 2.122-6.24 4.287-7.537 2.157-1.303 2.379-3.353 4.363-4.067l1.815-.606c1.233-.414 2.173-.814 2.014-1.504l.67-1.744 1.685-1.306c1.603-.947 2.717-2.446 3.868-3.062 1.134-.604-3.668 2.47-4.901 5.635-1.231 3.164.863 6.525 2.648 3.368 1.793-3.188 1.463-3.063 3.648-3.87 2.217-.81 3.78-2.85 5.33-3.423 1.547-.572 4.645-3.561 5.334-3.825.702-.262 2.217-1.935 3.799-4.216 1.595-2.28.464-2.97-1.272-2.124-1.726.855.21-3.26-.493-2.992-.71.28-2.684 2.537-2.573 3.79.11 1.262-1.646 1.93-2.125 2.3-.492.366-1.976 1.298-3.601 1.531-1.632.244-4.308.705-4.43-.548-.088-1.257-.571-3.308.461-4.441 1.054-1.148 1.094-.976 1.846-2.578.762-1.597 3.547-5.881.089-4.555-3.447 1.327-4.57.447-7.408 2.642-2.805 2.203-4.712 4.979-6.053 5.468-.753.278-2.335 2.79-3.77 5.018-.853 1.324-1.646 2.55-2.197 3.186l-.47.428c-1.101.583-2.033-.361-2.033-.361s.912-1.409 2.503-2.917c1.617-1.518 1.926-3.294 3.71-4.88 1.806-1.616 1.723-1.964 2.786-2.914 1.045-.95 2.697-2.524 2.708-2.524l2.125-1.937c.57-.774-.162-2.393 1.202-2.908 1.355-.526 6.254-2.79 8.38-3.446 2.127-.617 5.674-2.786 6.776-3.023 1.094-.232 4.07-1.612 4.982-1.97.895-.358 1.395-.734 3.398-3.281 2.006-2.559 1.463-3.12 6.528-5.548 5.072-2.458 6.416-3.006 6.475-5.587.059-2.6.39-3.937-.36-4.627-.762-.695-2.769 1.334-3.228-.873-.461-2.222-1.975-.788-3.819.98-1.833 1.736-3.209 3.695-4.854 4.36-1.63.663-4.33-.024-1.36-1.835 2.977-1.813 3.636-2.488 5.543-3.872 1.924-1.381 1.32-1.34 3.105-2.48 1.776-1.137 1.713-1.503-1.222-1.109-2.926.395-2.014 1.022-4.691.526-2.685-.517-5.234-.48-5.024-2.39.202-1.93.983.005 1.435-3.66.472-3.62-4.37-14.603-4.37-14.664 0 .016-2.146 5.358-5.043 8.421-2.907 3.086-5.062 4.782-5.544 6.223-.48 1.427-1.382 2.624-2.166.67-.77-1.951-1.462-1.678-2.204-1.577-.751.083-5.534 1.829-.65-3.279 4.911-5.16 2.455-3.108 2.112-4.859-.338-1.758-1.832-1.582-3.426-.93-1.595.655-2.347-.309-2.867-2.027-.511-1.71-2.467-1.983-5.194-.44-2.725 1.517-4.39 3.468-5.763 3.156-1.364-.302-5.774-.895-5.604 3.507.163 4.39-1.765 4.908-1.392 6.666.35 1.737.85 3.19-.852 3.855-1.694.654-5.977 5.19-3.018 7.121 2.938 1.924 3.149 2.046 2.927 4.337-.2 2.293-1.183 8.306-11.667 14.853 0-.004-.342 5.354.321 7.391.65 2.059.38 2.352-1.154 4.037-1.514 1.668-.86 2.947-2.617 3.563-1.753.6-2.125 1.864-2.998-.275-.86-2.143-1.392-.068-1.512-2.691-.11-2.608-1.534-1.336.512-4.362 2.043-3.016-.13-1.288 1.131-4.043 1.253-2.776 1.272-4.16.472-3.87l-7.987 2.223s-1.416-2.238-3.973-1.363c-2.543.881-5.252-3.118-8.451-2.06-3.165 1.067-5.723 2.475-5.723 2.475s1.753-3.904 1.193-6.12c-.56-2.226-4.14-.654-4.131-.662-.029.124 5.955-18.164 15.2-21.57 1.462-.512 4.529-5.024 1.19-4.03-3.335.984 2.026-2.006 3.82-2.879 1.775-.862 1.013-1.01 3.508-1.93 2.506-.942-1.062 1.693 3.168-2.038 4.251-3.766 5.084-4.303 4.862-5.306-.21-1.008-3.049 1.154-4.802.514-1.793-.642-2.597-1.003-2.597-1.003.003-.002 2.185-.818 3.589-1.13 1.396-.301 2.779-.617 3.75-1.205.983-.588.941.073 1.234-2.018.301-2.1.04-2.452 1.924-3.186 1.874-.724 2.054-1.68 4.108-1.599 2.057.085-.13-.608 2.93-1.148 3.046-.546-.182.077 3.728-2.822 3.93-2.923 5.994-3.08 5.243-5.024-.754-1.968-4.704.09-1.733-3.17 2.986-3.27 4.607-2.796 3.978-4.14-.64-1.347-3.788-1.91-4.671-1.552-.882.353-2.017-.582-3.88 1.56-1.863 2.135-1.535 4.769-2.414 6.03-.885 1.264-2.086.83-3.32 3.133-1.214 2.28-2.336 2.272-3.529 3.658-1.22 1.355-.1 1.375-1.214 1.355-1.11-.017-2.875-1.352-.681-2.444 2.188-1.065 4.61-2.02 2.538-3.943-2.067-1.923-3.93-2.804-5.255-.222-1.332 2.566-2.304 4.072-2.645 3.304-.36-.764-1.032-5.775-1.753-3.91-.714 1.885-3.45 2.93-4.883 4.846-1.423 1.892-3.798 2.784-4.76 4.262-.941 1.483-1.997 3.216-2.828 4.408-.81 1.19-.23 2.968-.893 3.219-.67.237-1.373 2.71-1.935.25-.57-2.458-1.202-2.904-2.876-2.291-1.674.588-4.01 1.42-4.841 1.697-.833.29-1.334.477-3.23 1.563-1.894 1.104-4.56 2.668-4.56 2.668s-1.624-2.992-4.782-1.944c-3.145 1.046-5.08 1.226-6.133 2.657-1.053 1.464-2.325 2.73-2.298 4.245.043 1.512.202 3.422-.78 3.083-.98-.355-.703-1.298-1.943-2.663-1.266-1.346-.655-1.758-3.309-.954-2.637.841-10.346 4.6-10.346 4.585 0-.015-1.443-.67 1.694-2.24 3.137-1.557 3.688-5.44-1.294-3.99-5 1.45-5.753 3.169-7.336 2.08l-.161-.091c-23.347 48.189-36.568 102.21-36.9 159.28l.01 2.459c1.444.883 1.405 2.5 2.175 4.438.974 2.44 1.324 5.384 2.696 6.192 1.375.798 3.1-.176 3.54 1.213.432 1.395 2.868 2.724 4.109 3.205 1.245.483-.08.358 1.035 2.208 1.11 1.861 2.083.258 4.188 2.478 2.114 2.225 7.618 3.435 8.582 6.777.982 3.35 1.221 3.603.69 5.421-.52 1.819-1.893 3.24-.04 4.163 1.875.929 7.288 4.07 8.902 3.726 1.634-.333 4.64-.603 4.64-.603s6.176 2.052 8.662 2.6c2.497.537 1.574.833 4.199.665 2.629-.14 6.286 1.199 6.667-.395.383-1.597 1.673-3.466 3.298-3.474 1.634-.01 5.715 3.493 6.636 3.889l1.113.397c1.103.39 2.777.884 4.442 1.145 1.323.206 2.625.26 3.629-.033 2.827-.85 1.844.265 4.67-.565l1.425-.015.411.447c.369.726.29 1.949 1.393 2.412 1.825.778 4.29 2.051 4.98 2.188l.221.224.533-.611zM663.239 1048.17c-2.196-.536-2.537-4.134-3.79-6.978-1.253-2.85-3.64-2.694-4.782-5.095-.43-.94-.841-1.747-1.242-2.432.108 2.609.25 5.209.4 7.796l1.094.816c1.092 1.73 1.092 1.725 1.373 2.665.29.927.662 3.365.662 3.365 2.024.878 4.03 1.75 6.024 2.632 0 .008 3.418 4.687 3.648 1.775.222-2.918-1.18-3.991-3.387-4.544zM771.651 805.397c-1.455.944.41 5.066 1.17 4.754.763-.315 3.047-1.253 5.354-2.195 2.307-.946 4.611-1.888 7.198-2.969 2.577-1.073 4.711-1.6 6.543-2.363 1.816-.764 3.21-2.405 7.07-4.721 3.848-2.323 3.586-5.73 3.578-5.73l-7.456 2.798c-.785.324-7.47 4.197-15.188 7.374-7.717 3.182 1.785-3.893 1.805-3.901l9.271-4.578 5.955-3.212c3.198-1.233 6.394-2.474 9.642-3.727-.009-.002 3.478-1.481 2.526-2.154-.952-.648-2.125-2.663.564-3.819 2.704-1.146 5.329-2.987 5.329-2.987l.836-2.153 9.13-5.342c.782-.7-3.307 1.409-4.68 1.995-1.372.58.47-4.926 2.022-6.323 1.544-1.404 10.82-4.606 13.365-5.677 2.526-1.086 4.49-1.92 6.435-3.095 1.924-1.19 3.689-5.967 5.966-6.942 2.295-.955 6.392-4.145 8.65-5.452 2.247-1.308 8.128-5.217 8.128-5.217 1.804-1.112 3.6-2.208 5.393-3.325 0 .01-3.298-1.967-7.375-.665-4.082 1.307-4.903 2.023-8.082 3.333-3.158 1.308-4.01 1.66-8.008 3.33-4 1.673-5.987 2.501-10.507 4.4-4.53 1.903-3.69 1.557-10.697 4.503-6.963 2.956-6.385 3.074-13.3 7.9-6.876 4.795-10.015 4.997-13.012 6.259-2.978 1.267-3.929 4.305-3.929 4.293.15 1.055.322 2.12.49 3.149l.914 2.201s-2.157.917-3.109.217c-.972-.713-3.426-.04-3.426-.04 0-.002-2.015 1.595-3.09 2.032-1.051.444-4.77 2.007-6.345 2.662-1.593.657-3.299 5.422-3.299 5.413.324 1.215.621 2.433.924 3.626 0 .01 2.815 1.739 3.858 1.294 1.043-.427 3.668-1.523 5.194-2.522 1.523-1 4.902-2.77 5.703-3.123l3.45.357-.793 2.134-2.285-.109s-2.637 1.1-3.69 1.543c-1.06.436-2.296 3.129-3.86 3.771-1.562.649-3.136 1.304-4.18 1.736-1.03.427-1.843 2.188-3.648 2.932-1.823.748-5.674.91-7.648.652-1.975-.27-2.967 4.776-2.967 4.756 1.704-.679 3.406-1.378 5.122-2.075 0 .012.47 4.052-1.011 5.002z"/><path class="fil8" d="m702.364 858.038.952 2.535s1.812-.842 6.504-2.294c4.71-1.46 8.59-5.262 9.553-6.555.952-1.272 1.174.58 5.314.78 4.148.18 3.066-1.039 7.107-2.443 4.03-1.406-.322-2.443.381-2.681.712-.254 4.52-1.605 6.163-3.49 1.636-1.878-6.556.741-6.536-3.54.03-4.243 4.14-11.444 4.16-11.452.963-.369 1.164-1.787 1.164-1.787-1.783.653-3.568 1.316-5.344 1.952.242 1.478.511 2.946.753 4.421 0-.002-1.142-1.589-3.228-1.522-2.086.075-5.032 4.131-4.22 7.458l.08.284c-.36-.923-1.113-2.29-2.125-1.212-1.112 1.153.11-2.702-.54-1.146-.651 1.549-3.2 1.765-5.425 1.187-2.233-.582-2.165.731-5.354 1.441-3.196.708-3.76 1.555-6.865 2.535-3.107.98-3.75 1.492-4.622 4.038-.85 2.531 3.529 2.477 1.145 3.21-2.378.714-4.052 2.177-3.01 2.177 1.043.05 11.73-1.336 11.73-1.358 0 0-3.088.978-6.637 2.07-3.567 1.09-7.607 2.272-7.265 5.32.34 3.059 6.161.083 6.165.072z"/></g></svg>